<svg xmlns="http://www.w3.org/2000/svg" width="48" height="48" viewBox="0 0 48 48" fill="none">
<path fill-rule="evenodd" clip-rule="evenodd" d="M7.5001 36.3375V33.3C7.5001 32.8875 7.7626 32.5875 8.1751 32.5875H8.2876C8.7001 32.5875 8.9626 32.925 8.9626 33.3V39.675C8.9626 41.2125 8.2126 42.45 6.8626 43.2375C6.2251 43.6125 5.5501 43.8 4.8376 43.8H4.5376C3.0001 43.8 1.7626 43.05 0.975098 41.7C0.600098 41.0625 0.412598 40.3875 0.412598 39.675V39.375C0.412598 37.8375 1.1626 36.6 2.5126 35.8125C3.1501 35.4375 3.8251 35.25 4.5376 35.25H4.8376C5.8501 35.2875 6.7501 35.6625 7.5001 36.3375V36.3375ZM1.8376 39.525C1.8376 40.65 2.4001 41.475 3.3751 42.0375C3.7876 42.2625 4.2001 42.375 4.6501 42.375C5.7376 42.375 6.5626 41.85 7.1251 40.9125C7.3876 40.4625 7.5001 40.0125 7.5001 39.4875C7.5001 38.5125 7.0501 37.7625 6.2626 37.2C5.7751 36.8625 5.2501 36.675 4.6876 36.675C3.4876 36.675 2.6251 37.275 2.1001 38.3625C1.9126 38.7375 1.8376 39.15 1.8376 39.525V39.525ZM13.9126 35.2875H14.1001C15.7501 35.2875 17.0251 36.075 17.8126 37.5375C18.1501 38.1 18.3001 38.7375 18.3001 39.4125V39.7125C18.3001 41.25 17.5501 42.4875 16.2001 43.275C15.5626 43.65 14.8876 43.8375 14.1751 43.8375H13.8751C12.3376 43.8375 11.1001 43.0875 10.3126 41.7375C9.9376 41.1 9.7501 40.425 9.7501 39.7125V39.4125C9.7501 37.875 10.5376 36.6375 11.8501 35.85C12.4876 35.4375 13.2001 35.2875 13.9126 35.2875ZM11.2126 39.525C11.2126 40.6125 11.7376 41.4 12.6751 41.9625C13.1251 42.225 13.5751 42.3375 14.1001 42.3375C15.1876 42.3375 15.9751 41.775 16.5376 40.875C16.8001 40.425 16.9126 39.975 16.9126 39.45C16.9126 38.4375 16.4251 37.65 15.6001 37.0875C15.1501 36.7875 14.6251 36.6375 14.1001 36.6375C12.9001 36.6375 12.0376 37.2375 11.5126 38.325C11.2876 38.7375 11.2126 39.15 11.2126 39.525ZM24.2626 36.825C24.0376 36.7125 23.6251 36.675 23.4001 36.675C22.2001 36.6375 21.3376 37.3125 20.8126 38.3625C20.6251 38.7375 20.5501 39.1125 20.5501 39.525C20.5501 40.7625 21.1876 41.625 22.2751 42.15C22.6876 42.3375 23.1751 42.375 23.6251 42.375C24.0001 42.375 24.5626 42.15 24.9001 41.9625L24.9751 41.925H25.2751C25.6126 42 25.8376 42.1875 25.8376 42.5625V42.7125C25.8376 43.575 24.2251 43.8 23.6251 43.8375C21.4876 43.9875 19.8751 42.825 19.2751 40.7625C19.1626 40.425 19.1251 40.05 19.1251 39.675V39.375C19.1251 37.8375 19.9126 36.6 21.2251 35.8125C21.8626 35.4375 22.5376 35.25 23.2501 35.25H23.5501C24.3001 35.25 25.0126 35.475 25.6501 35.8875L25.6876 35.925L25.7251 35.9625C25.8001 36.075 25.8376 36.1875 25.8376 36.3375V36.4875C25.8376 36.8625 25.5751 37.05 25.2376 37.125H25.1251C24.9376 37.125 24.4501 36.9 24.2626 36.825ZM28.9126 37.8C29.4751 37.2375 30.0376 36.675 30.6001 36.15C30.7501 36 31.3501 35.3625 31.5751 35.3625H31.8751C32.2126 35.4375 32.4376 35.625 32.4376 36V36.15C32.4376 36.375 32.1751 36.675 31.9876 36.825L30.9751 37.8375L29.2501 39.6C30.0001 40.35 30.7501 41.1 31.4626 41.85L32.0626 42.4875C32.1376 42.5625 32.2501 42.6375 32.2876 42.75C32.3626 42.8625 32.4001 42.975 32.4001 43.0875V43.275C32.3251 43.6125 32.1001 43.875 31.7626 43.875H31.6501C31.4251 43.875 31.1626 43.6125 30.9751 43.4625C30.6376 43.1625 30.3001 42.825 30.0001 42.4875L28.9126 41.4V43.125C28.9126 43.5375 28.6501 43.8375 28.2376 43.8375H28.1251C27.7126 43.8375 27.4501 43.5 27.4501 43.125V33.3375C27.4501 32.925 27.7126 32.625 28.1251 32.625H28.2376C28.6501 32.625 28.9126 32.925 28.9126 33.3375V37.8V37.8ZM46.7626 35.325H46.9126C47.3251 35.325 47.6251 35.625 47.6251 36.0375C47.6251 36.6375 47.0626 36.7875 46.5751 36.7875C45.9376 36.7875 45.3001 37.1625 44.8876 37.6125C44.3251 38.175 44.1001 38.85 44.1001 39.6375V43.0875C44.1001 43.5 43.8376 43.8 43.4251 43.8H43.3126C42.9001 43.8 42.6376 43.4625 42.6376 43.0875V39.4125C42.6376 37.9875 43.3126 36.8625 44.4751 36.0375C45.1501 35.5875 45.9376 35.325 46.7626 35.325V35.325ZM36.6001 42.1875C37.1251 42.375 37.7251 42.3375 38.2501 42.2625C38.5126 42.15 39.2251 41.85 39.4876 41.8875H39.5626C39.7126 41.9625 39.8626 42.075 39.9376 42.225C40.1251 42.6 40.0501 42.975 39.6751 43.2L39.5626 43.275C38.2126 44.0625 36.7501 43.95 35.4001 43.2C34.7626 42.8625 34.2751 42.3375 33.9001 41.7L33.8251 41.55C32.9626 40.05 33.0751 38.4375 34.0501 37.0125C34.3876 36.525 34.8376 36.15 35.3626 35.85L35.5501 35.7375C36.8251 34.9875 38.2126 35.0625 39.5251 35.7C40.2376 36.0375 40.8001 36.5625 41.2126 37.2375L41.2876 37.35C41.5876 37.8375 41.2126 38.2875 40.8376 38.5875C40.3876 38.925 39.9376 39.3375 39.5251 39.7125C38.5126 40.5375 37.5376 41.3625 36.6001 42.1875ZM35.3626 41.325L38.5501 38.5875C38.9251 38.2875 39.3001 37.95 39.6751 37.6125C39.3751 37.2375 38.8876 36.975 38.5126 36.825C37.6876 36.525 36.8626 36.6 36.1126 37.05C35.1376 37.6125 34.6876 38.55 34.7251 39.675C34.7251 40.125 34.8751 40.5375 35.1001 40.95C35.1751 41.1 35.2501 41.2125 35.3626 41.325M27.6376 12.6375H31.8751V16.95H34.0126C34.9876 16.95 36.0001 16.7625 36.9376 16.4625C37.3876 16.3125 37.9126 16.0875 38.3626 15.825C37.7626 15.0375 37.4626 14.0625 37.3876 13.0875C37.2751 11.775 37.5376 10.05 38.4376 9.0375L38.8876 8.5125L39.4126 8.925C40.7626 10.0125 41.8501 11.475 42.0751 13.2C43.6876 12.7125 45.5626 12.825 46.9876 13.65L47.5501 13.9875L47.2501 14.5875C46.0501 16.9125 43.5376 17.6625 41.1001 17.5125C37.4251 26.625 29.4751 30.9375 19.8001 30.9375C14.8126 30.9375 10.2376 29.0625 7.6126 24.6375L7.5751 24.5625L7.2001 23.775C6.3001 21.825 6.0376 19.6875 6.2251 17.55L6.3001 16.9125H9.9001V12.6375H14.1376V8.4H22.5751V4.1625H27.6376V12.6375V12.6375Z" fill="#3A4D54"/>
<path d="M41.325 14.2125C41.625 12 39.975 10.275 38.925 9.45C37.7625 10.8 37.575 14.4 39.4125 15.9C38.3625 16.8 36.225 17.6625 33.975 17.6625H6.90004C6.67504 19.9875 7.08754 22.125 8.02504 23.9625L8.32504 24.525C8.51254 24.8625 8.73754 25.1625 8.96254 25.5C10.0875 25.575 11.1 25.6125 12.0375 25.575C13.875 25.5375 15.375 25.3125 16.5375 24.9375C16.725 24.8625 16.875 24.975 16.95 25.125C17.025 25.3125 16.9125 25.4625 16.7625 25.5375C16.6125 25.575 16.4625 25.65 16.275 25.6875C15.375 25.95 14.4 26.1 13.1625 26.175H12.9375C12.45 26.2125 11.925 26.2125 11.3625 26.2125C10.7625 26.2125 10.2 26.2125 9.52504 26.175C11.775 28.725 15.3 30.225 19.725 30.225C29.1 30.225 37.05 26.0625 40.5375 16.7625C43.05 17.025 45.45 16.3875 46.5375 14.25C44.85 13.275 42.6 13.575 41.325 14.2125V14.2125Z" fill="#00AADA"/>
<path d="M41.3249 14.2125C41.6249 12 39.9749 10.275 38.9249 9.45C37.7624 10.8 37.5749 14.4 39.4124 15.9C38.3624 16.8 36.2249 17.6625 33.9749 17.6625H8.47495C8.36245 21.225 9.67495 23.925 12.0374 25.5375C13.8749 25.5 15.3749 25.275 16.5374 24.9C16.7249 24.825 16.8749 24.9375 16.9499 25.0875C17.0249 25.275 16.9124 25.425 16.7624 25.5C16.6124 25.5375 16.4624 25.6125 16.2749 25.65C15.3749 25.9125 14.3249 26.1 13.0874 26.175L13.0499 26.1375C16.2374 27.7875 20.8499 27.75 26.1749 25.725C32.0999 23.4375 37.6499 19.0875 41.5124 14.1375C41.4374 14.175 41.3999 14.2125 41.3249 14.2125V14.2125Z" fill="#28B8EB"/>
<path d="M6.9375 20.475C7.0875 21.7125 7.4625 22.875 8.025 23.9625L8.325 24.525C8.5125 24.8625 8.7375 25.1625 8.9625 25.5C10.0875 25.575 11.1 25.6125 12.0375 25.575C13.875 25.5375 15.375 25.3125 16.5375 24.9375C16.725 24.8625 16.875 24.975 16.95 25.125C17.025 25.3125 16.9125 25.4625 16.7625 25.5375C16.6125 25.575 16.4625 25.65 16.275 25.6875C15.375 25.95 14.325 26.1375 13.0875 26.2125H12.9375C12.45 26.25 11.925 26.25 11.4 26.25C10.8 26.25 10.2 26.25 9.5625 26.2125C11.8125 28.7625 15.375 30.2625 19.8 30.2625C27.825 30.2625 34.8 27.225 38.85 20.5125H6.9375V20.475Z" fill="#028BB8"/>
<path d="M8.73755 20.475C9.22505 22.65 10.35 24.375 12.0375 25.5375C13.875 25.5 15.375 25.275 16.5375 24.9C16.725 24.825 16.875 24.9375 16.95 25.0875C17.025 25.275 16.9125 25.425 16.7625 25.5C16.6125 25.5375 16.4625 25.6125 16.275 25.65C15.375 25.9125 14.325 26.1 13.05 26.175C16.2375 27.825 20.85 27.7875 26.1375 25.7625C29.325 24.525 32.4376 22.6875 35.2126 20.475H8.73755Z" fill="#019BC6"/>
<path fill-rule="evenodd" clip-rule="evenodd" d="M10.575 13.3125H14.25V16.9875H10.575V13.3125ZM10.875 13.65H11.175V16.6875H10.875V13.65ZM11.4375 13.65H11.7375V16.6875H11.4375V13.65ZM12 13.65H12.3V16.6875H12V13.65ZM12.525 13.65H12.825V16.6875H12.525V13.65ZM13.0875 13.65H13.3875V16.6875H13.0875V13.65ZM13.65 13.65H13.95V16.6875H13.65V13.65ZM14.8125 9.1125H18.4875V12.75H14.8125V9.1125V9.1125ZM15.1125 9.4125H15.4125V12.45H15.1125V9.4125V9.4125ZM15.675 9.4125H15.975V12.45H15.675V9.4125V9.4125ZM16.2 9.4125H16.5V12.45H16.2V9.4125V9.4125ZM16.7625 9.4125H17.0625V12.45H16.7625V9.4125V9.4125ZM17.325 9.4125H17.625V12.45H17.325V9.4125V9.4125ZM17.8875 9.4125H18.1875V12.45H17.8875V9.4125V9.4125Z" fill="#00ACD3"/>
<path fill-rule="evenodd" clip-rule="evenodd" d="M14.8125 13.3125H18.4875V16.9875H14.8125V13.3125ZM15.1125 13.65H15.4125V16.6875H15.1125V13.65ZM15.675 13.65H15.975V16.6875H15.675V13.65ZM16.2 13.65H16.5V16.6875H16.2V13.65ZM16.7625 13.65H17.0625V16.6875H16.7625V13.65ZM17.325 13.65H17.625V16.6875H17.325V13.65ZM17.8875 13.65H18.1875V16.6875H17.8875V13.65Z" fill="#23C2EE"/>
<path fill-rule="evenodd" clip-rule="evenodd" d="M19.05 13.3125H22.725V16.9875H19.05V13.3125ZM19.35 13.65H19.65V16.6875H19.35V13.65ZM19.875 13.65H20.175V16.6875H19.875V13.65V13.65ZM20.4375 13.65H20.7375V16.6875H20.4375V13.65ZM21 13.65H21.3V16.6875H21V13.65V13.65ZM21.5625 13.65H21.8625V16.6875H21.5625V13.65ZM22.0875 13.65H22.3875V16.6875H22.0875V13.65Z" fill="#00ACD3"/>
<path fill-rule="evenodd" clip-rule="evenodd" d="M19.05 9.1125H22.725V12.75H19.05V9.1125ZM19.35 9.4125H19.65V12.45H19.35V9.4125ZM19.875 9.4125H20.175V12.45H19.875V9.4125V9.4125ZM20.4375 9.4125H20.7375V12.45H20.4375V9.4125ZM21 9.4125H21.3V12.45H21V9.4125V9.4125ZM21.5625 9.4125H21.8625V12.45H21.5625V9.4125ZM22.0875 9.4125H22.3875V12.45H22.0875V9.4125ZM23.25 13.3125H26.9251V16.9875H23.25V13.3125ZM23.5875 13.65H23.8875V16.6875H23.5875V13.65ZM24.1126 13.65H24.4125V16.6875H24.1126V13.65ZM24.6751 13.65H24.975V16.6875H24.6751V13.65ZM25.2376 13.65H25.5375V16.6875H25.2376V13.65ZM25.7625 13.65H26.0625V16.6875H25.7625V13.65ZM26.325 13.65H26.625V16.6875H26.325V13.65Z" fill="#23C2EE"/>
<path fill-rule="evenodd" clip-rule="evenodd" d="M23.25 9.1125H26.925V12.75H23.25V9.1125ZM23.5875 9.4125H23.8875V12.45H23.5875V9.4125ZM24.1125 9.4125H24.4125V12.45H24.1125V9.4125ZM24.675 9.4125H24.975V12.45H24.675V9.4125ZM25.2375 9.4125H25.5375V12.45H25.2375V9.4125ZM25.7625 9.4125H26.0625V12.45H25.7625V9.4125ZM26.325 9.4125H26.625V12.45H26.325V9.4125Z" fill="#00ACD3"/>
<path fill-rule="evenodd" clip-rule="evenodd" d="M23.25 4.875H26.925V8.55H23.25V4.875ZM23.5875 5.175H23.8875V8.25H23.5875V5.175ZM24.1125 5.175H24.4125V8.25H24.1125V5.175ZM24.675 5.175H24.975V8.25H24.675V5.175ZM25.2375 5.175H25.5375V8.25H25.2375V5.175ZM25.7625 5.175H26.0625V8.25H25.7625V5.175ZM26.325 5.175H26.625V8.25H26.325V5.175Z" fill="#23C2EE"/>
<path fill-rule="evenodd" clip-rule="evenodd" d="M27.4875 13.3125H31.1625V16.9875H27.4875V13.3125ZM27.7875 13.65H28.0875V16.6875H27.7875V13.65ZM28.35 13.65H28.65V16.6875H28.35V13.65ZM28.9125 13.65H29.2125V16.6875H28.9125V13.65ZM29.4375 13.65H29.7375V16.6875H29.4375V13.65ZM30 13.65H30.3V16.6875H30V13.65ZM30.5625 13.65H30.8625V16.6875H30.5625V13.65Z" fill="#00ACD3"/>
<path fill-rule="evenodd" clip-rule="evenodd" d="M18.2249 22.95C18.7874 22.95 19.2374 23.4 19.2374 23.9625C19.2374 24.525 18.7874 24.975 18.2249 24.975C17.6624 24.975 17.2124 24.525 17.2124 23.9625C17.2499 23.4 17.6999 22.95 18.2249 22.95Z" fill="#D4EEF1"/>
<path fill-rule="evenodd" clip-rule="evenodd" d="M18.225 23.2125C18.3 23.2125 18.4125 23.2125 18.4875 23.25C18.4125 23.2875 18.3375 23.4 18.3375 23.5125C18.3375 23.6625 18.4875 23.8125 18.6375 23.8125C18.75 23.8125 18.8625 23.7375 18.9 23.6625C18.9375 23.7375 18.9375 23.85 18.9375 23.925C18.9375 24.3375 18.6 24.6375 18.225 24.6375C17.8125 24.6375 17.5125 24.3 17.5125 23.925C17.5125 23.55 17.85 23.2125 18.225 23.2125M0.375 20.85H47.3625C46.35 20.5875 44.1375 20.25 44.475 18.9C42.6 21.0375 38.1375 20.4 36.975 19.35C35.7 21.1875 28.35 20.475 27.8625 19.05C26.2875 20.925 21.375 20.925 19.8 19.05C19.275 20.475 11.925 21.1875 10.6875 19.35C9.5625 20.4 5.0625 21.0375 3.1875 18.9C3.6 20.2125 1.3875 20.5875 0.375 20.85" fill="#3A4D54"/>
<path d="M20.925 30.225C18.4125 29.025 17.0625 27.4125 16.275 25.65C15.3375 25.9125 14.2125 26.1 12.9375 26.175C12.45 26.2125 11.925 26.2125 11.4 26.2125C10.7625 26.2125 10.125 26.2125 9.44995 26.175C11.7375 28.4625 14.5875 30.225 19.8 30.2625C20.175 30.225 20.55 30.225 20.925 30.225V30.225Z" fill="#BFDBE0"/>
<path d="M17.2125 27.2625C16.875 26.775 16.5375 26.2125 16.275 25.65C15.3375 25.9125 14.2125 26.1 12.9375 26.175C13.8375 26.6625 15.1125 27.1125 17.2125 27.2625V27.2625Z" fill="#D4EEF1"/>
</svg>