<svg xmlns="http://www.w3.org/2000/svg" width="55" height="49" viewBox="0 0 55 49" fill="none">
<path d="M24.0625 48.375C28.525 48.375 32.125 44.775 32.125 40.3125V32.25H24.0625C19.6 32.25 16 35.85 16 40.3125C16 44.775 19.6 48.375 24.0625 48.375Z" fill="#0ACF83"/>
<path d="M16 24.1875C16 19.725 19.6 16.125 24.0625 16.125H32.125V32.25H24.0625C19.6 32.25 16 28.65 16 24.1875Z" fill="#A259FF"/>
<path d="M16 8.0625C16 3.6 19.6 0 24.0625 0H32.125V16.125H24.0625C19.6 16.125 16 12.525 16 8.0625Z" fill="#F24E1E"/>
<path d="M32.125 0H40.1875C44.65 0 48.25 3.6 48.25 8.0625C48.25 12.525 44.65 16.125 40.1875 16.125H32.125V0Z" fill="#FF7262"/>
<path d="M48.25 24.1875C48.25 28.65 44.65 32.25 40.1875 32.25C35.725 32.25 32.125 28.65 32.125 24.1875C32.125 19.725 35.725 16.125 40.1875 16.125C44.65 16.125 48.25 19.725 48.25 24.1875Z" fill="#1ABCFE"/>
</svg>