<svg xmlns="http://www.w3.org/2000/svg" width="48" height="48" viewBox="0 0 48 48" fill="none">
<path d="M7.03769 31.0069C6.27157 30.4046 5.45369 29.8271 4.89532 29.013C3.71969 27.5775 2.81482 25.9163 2.19607 24.1703C1.82182 23.0348 1.69394 21.8171 1.21169 20.7259C0.707693 19.9331 1.29832 19.0665 2.16682 18.8145C2.55307 18.7403 3.23294 18.3754 2.41244 18.636C1.67669 19.176 1.60582 18.1463 2.36032 18.0806C2.87482 18.0128 3.06457 17.5913 2.88832 17.2121C2.33557 16.8514 4.22857 16.4558 3.27607 15.9176C2.28419 14.847 4.66357 14.6411 4.07669 15.8569C3.93607 16.7914 5.73982 15.6851 5.32094 16.7648C5.74657 17.2834 6.91394 16.8829 6.88469 17.61C7.50419 17.6528 7.71719 18.1736 8.29844 18.2138C8.90144 18.4864 9.99382 18.7005 10.1989 19.38C9.60119 19.8529 8.21669 18.402 8.14994 19.7123C8.33069 21.6484 8.28419 23.6422 8.99294 25.4857C9.32782 26.6025 10.1401 27.4807 10.8736 28.3507C11.5756 29.2024 12.5262 29.8016 13.4952 30.306C14.3449 30.7069 15.2611 30.9724 16.1877 31.1396C16.5631 30.8524 17.2268 29.7844 17.8126 30.2348C17.8407 30.741 16.6497 31.293 17.7567 31.2375C18.4069 31.0406 18.8577 31.74 19.3932 31.1089C19.8863 31.6931 21.4433 30.7361 21.0923 31.9301C20.6172 32.2361 19.9253 32.0505 19.4502 32.4728C18.6664 32.0809 18.0428 32.8226 17.1747 32.7296C16.2113 32.9014 15.2307 32.9715 14.2538 32.9726C12.6511 32.8463 11.0146 32.7926 9.49019 32.235C8.63032 31.9853 7.79257 31.4955 7.03769 31.0069V31.0069ZM8.39069 31.5938C9.22919 31.956 10.0493 32.3381 10.9684 32.4536C12.4268 32.6561 13.9328 32.9685 15.3964 32.6842C14.7338 32.385 14.0491 32.7997 13.3891 32.4701C12.5978 32.6407 11.7484 32.427 10.9437 32.3216C10.0291 31.9144 9.04169 31.6339 8.18482 31.1048C7.11419 30.7136 8.73832 31.6065 9.02782 31.6789C9.69682 32.0587 8.29207 31.4839 8.09369 31.3264C7.53307 31.0118 7.46144 31.0774 8.03819 31.3969C8.15444 31.464 8.26919 31.536 8.39069 31.5938V31.5938ZM6.79469 30.4657C7.60769 30.7672 6.79132 29.8942 6.41932 29.9449C6.25432 29.6584 5.78857 29.4776 6.11707 29.3242C5.52682 29.5294 5.49832 28.5446 5.22119 28.6853C4.59607 28.488 4.97819 27.789 4.23344 27.36C4.16557 26.9078 3.49432 26.5159 3.28019 25.8338C3.18569 25.4843 2.52119 24.4819 2.92919 25.4145C3.27644 26.313 3.88732 27.0829 4.39657 27.8512C4.79107 28.5825 5.25757 29.3479 5.97644 29.8042C6.21869 30.0367 6.45269 30.393 6.79469 30.4657V30.4657ZM4.45394 27.8951C4.48169 27.7725 4.60244 28.1606 4.45394 27.8951V27.8951ZM7.76857 30.8269C7.94819 30.7455 7.50944 30.7249 7.76857 30.8269V30.8269ZM8.20957 30.9874C8.16419 30.765 8.00782 31.1119 8.20957 30.9874V30.9874ZM8.76194 31.2173C9.02444 30.9671 8.35657 31.0594 8.76194 31.2173V31.2173ZM9.70844 31.7449C9.86819 31.5094 9.19694 31.6564 9.70844 31.7449V31.7449ZM7.89082 30.4781C8.29882 30.2138 7.36319 30.4748 7.89082 30.4781V30.4781ZM8.30482 30.6847C8.29319 30.5452 8.15744 30.747 8.30482 30.6847V30.6847ZM10.3752 31.977C10.7082 32.1874 12.3192 32.4371 11.3104 32.0629C11.1413 32.0989 9.43994 31.5821 10.3752 31.977ZM7.08907 29.4169C7.05644 29.2774 6.57157 29.2624 7.08907 29.4169V29.4169ZM8.05207 29.979C8.30332 29.8043 7.53157 29.844 8.05207 29.979V29.979ZM8.86319 30.4762C9.22319 30.3401 8.27932 30.3397 8.86319 30.4762V30.4762ZM6.69607 28.9898C7.08682 29.2898 8.27182 29.0288 7.29419 28.8113C6.84944 28.5743 5.84744 28.4122 6.53069 28.9541L6.69607 28.9898V28.9898ZM9.41219 30.6476C9.57532 30.3705 8.72969 30.4894 9.41219 30.6476V30.6476ZM8.58682 29.9917C9.54157 30.2621 7.78394 29.3876 8.35132 29.8924L8.47694 29.949L8.58682 29.9917ZM10.2421 30.948C11.1462 30.957 9.42494 30.8235 10.2421 30.948V30.948ZM6.34807 28.4666C6.31282 28.2983 6.12532 28.4805 6.34807 28.4666V28.4666ZM11.7713 31.8064C11.7953 31.5026 11.4766 32.0329 11.7713 31.8064V31.8064ZM7.89194 29.412C7.83682 29.2515 7.60919 29.4049 7.89194 29.412V29.412ZM6.43432 28.3612C6.95332 28.3294 5.72294 28.1329 6.43432 28.3612V28.3612ZM4.70707 27.2449C4.64219 26.9955 4.14232 26.7975 4.70707 27.2449V27.2449ZM9.24082 30.1222C9.14594 30.0135 9.19582 30.1459 9.24082 30.1222V30.1222ZM12.0623 31.8536C12.0537 31.6879 11.9086 31.9163 12.0623 31.8536V31.8536ZM8.99107 29.8643C9.04207 29.6501 8.54819 29.799 8.99107 29.8643V29.8643ZM6.88882 28.5319C7.27507 28.4906 6.26969 28.2705 6.88882 28.5319V28.5319ZM10.4449 30.741C11.0468 30.5029 9.85807 30.6251 10.4449 30.741V30.741ZM8.59507 29.4859C9.28882 29.5751 7.76969 29.0138 8.44244 29.4353L8.59507 29.4859ZM11.0063 30.9686C11.6543 30.5816 11.4406 31.8754 12.1054 31.0778C12.7609 30.5989 11.5392 31.6695 12.3469 31.1632C12.9316 30.7725 13.7948 31.3485 14.3401 31.5364C14.7319 31.5173 15.1133 31.8754 15.5157 31.6571C16.2897 31.4486 14.0018 31.3481 14.6014 30.9788C13.8934 31.1846 13.3707 30.7331 13.0219 30.2794C12.2273 30.096 11.3097 29.6895 10.9126 28.9864C10.7506 28.7227 11.1458 29.0243 10.7727 28.5926C10.2942 28.1666 10.0553 27.6829 9.73394 27.1658C9.35032 26.9614 9.30494 26.3588 9.26632 27.1455C9.26932 26.649 8.80282 26.3145 8.68844 26.4529C8.68657 25.9744 9.18832 26.2144 8.83694 25.8604C8.76157 25.3642 8.51257 24.8479 8.43794 24.288C8.32207 24.0176 8.42182 23.4398 8.04119 24.0506C7.90282 24.6964 7.99544 23.2575 8.21107 23.7315C8.49344 23.247 8.10944 23.3044 8.09369 23.3711C8.27782 22.9628 8.21032 22.3834 8.04532 22.6043C8.14319 22.1711 8.20019 21.0101 7.89869 21.2164C8.08169 20.7634 8.24594 19.1434 7.45132 19.761C7.12957 19.7659 6.57194 19.8773 6.30907 20.0085C7.13444 20.4638 6.22582 20.1731 5.88907 20.1004C5.84557 20.5223 5.51257 20.3404 5.09632 20.3441C5.76082 20.4259 4.77269 21.024 4.39207 20.7915C3.89669 21.0278 4.81919 21.6191 4.40182 21.8018C4.45319 22.0766 3.64319 21.702 3.70657 22.338C3.22582 22.1351 3.64094 23.0925 3.88132 22.7685C4.69882 22.9901 4.45657 23.4941 4.47719 23.973C4.34407 24.2524 3.81944 23.3167 4.36019 23.3602C3.93344 22.6669 3.88844 23.1098 3.53332 23.4319C3.45119 23.4548 4.43782 23.8901 3.81869 24.105C4.36319 24.1894 4.37932 24.6656 4.49069 24.9675C4.81769 25.3088 4.75057 24.591 5.14244 25.0012C4.89419 24.6352 3.82882 23.9715 4.68644 24.1845C4.68194 23.817 4.53119 23.5204 4.79444 23.5275C5.05507 23.0565 4.52144 24.69 5.10832 24.0911C5.27107 24.0199 5.31119 23.6194 5.60332 24.129C6.02707 24.5464 5.75669 24.8486 5.15819 24.4654C5.26507 24.8295 5.95844 24.9585 5.82794 25.5263C5.96594 26.0261 6.15944 25.842 6.32782 25.8131C6.45982 26.2984 6.53519 25.9418 6.54119 25.7111C7.14569 25.8405 7.00394 26.1979 7.19369 26.448C7.61069 26.6355 6.59707 25.173 7.31257 26.0081C8.06519 26.6876 7.59494 26.9708 6.91957 26.8624C7.34707 26.8275 7.48469 27.4402 8.01982 27.4189C8.50769 27.6506 8.83807 28.5416 7.99694 28.1708C7.70557 27.9075 6.67319 27.5835 7.51694 28.0838C8.29507 28.4441 8.91344 28.6594 9.66419 29.1124C10.2012 29.4953 10.4333 29.9344 10.6369 30.0225C10.1854 30.237 9.27644 29.8496 9.95144 29.7311C9.52994 29.655 9.05632 29.4413 9.45944 29.9663C9.80294 30.2528 10.6748 30.2231 10.8316 30.255C10.6988 30.5464 10.4716 30.57 10.8364 30.5925C10.4303 30.8104 10.9688 30.8445 11.0063 30.9686V30.9686ZM10.1727 28.6148C9.92444 28.3553 9.85994 27.87 10.1284 28.2919C10.2661 28.3474 10.5691 29.0854 10.1727 28.6148ZM12.8873 30.3386C13.0422 30.3285 12.8922 30.4564 12.8873 30.3386V30.3386ZM9.78119 27.978C9.77144 27.5861 9.87082 28.2806 9.78119 27.978V27.978ZM9.51157 27.6157C9.19919 27.0131 9.90494 27.786 9.51157 27.6157V27.6157ZM6.24157 25.359C6.42494 25.3099 6.33194 25.6718 6.24157 25.359V25.359ZM8.84407 26.769C8.95657 26.3464 8.97644 27.1234 8.84407 26.769V26.769ZM7.00544 25.4906C6.87607 25.2577 7.27657 25.7096 7.00544 25.4906V25.4906ZM8.58307 25.9965C8.28757 25.3342 8.79307 25.6346 8.64869 26.1049L8.58307 25.9965ZM5.86207 24.1819C5.73007 23.9648 5.51144 23.3276 5.58232 23.1326C5.64532 23.4499 6.25582 24.4965 5.88119 23.5661C5.46757 22.7865 6.37582 23.8185 6.46919 24.0139C6.51307 24.2074 6.21382 23.961 6.41632 24.4148C6.04732 23.8984 6.19882 24.7001 5.86207 24.1819V24.1819ZM5.02169 23.6021C5.05619 23.097 5.21369 23.9483 5.02169 23.6021V23.6021ZM5.39969 23.733C5.58007 23.3516 5.70532 24.2644 5.39969 23.733V23.733ZM4.48957 23.0288C4.17682 22.7171 3.95032 22.431 4.50494 22.836C4.71794 22.8439 4.02982 22.1831 4.55594 22.6256C5.10907 22.7269 4.82894 23.5328 4.48957 23.0288ZM4.96769 23.0164C5.14957 22.836 5.06407 23.1938 4.96769 23.0164V23.0164ZM5.26207 23.1105C4.98607 22.5941 5.59657 23.3276 5.26207 23.1105V23.1105ZM4.67744 22.5521C3.76769 21.7418 5.82082 22.9751 4.82594 22.7021L4.67744 22.5521ZM7.28519 24.0668C6.89107 23.8309 7.18019 22.4048 7.31519 23.3798C7.69769 23.256 7.29382 23.8838 7.57919 23.8778C7.53419 24.2741 7.40632 24.4159 7.28519 24.0668ZM8.24969 24.6375C8.28832 24.2074 8.33069 24.9307 8.24969 24.6375V24.6375ZM8.08207 24.471C8.12519 24.2884 8.08619 24.6877 8.08207 24.471V24.471ZM4.85557 22.2859C4.27057 21.4796 6.55469 23.1022 5.23019 22.4906C5.09182 22.4542 4.92494 22.4408 4.85557 22.2859ZM6.71332 23.2703C6.65782 22.5911 6.83632 23.3828 6.71332 23.2703V23.2703ZM8.12294 24.1751C8.23207 23.7885 8.13157 24.4309 8.12294 24.1751V24.1751ZM4.94557 21.978C5.29319 21.9038 6.38519 22.5878 5.38244 22.1734C5.27107 22.05 5.03294 22.1059 4.94557 21.978V21.978ZM7.92944 23.4653C7.96657 22.7704 8.13719 23.0509 7.93094 23.5646L7.92944 23.4653ZM5.20394 21.7361C5.34532 21.5284 4.82782 20.7975 5.27857 21.4744C5.47319 21.6289 5.84182 21.7331 5.51632 21.798C6.02857 22.2502 5.39182 21.9203 5.20394 21.7361ZM7.78169 23.2485C7.87957 22.4572 7.86832 23.7116 7.78169 23.2485V23.2485ZM4.90769 21.0053C5.01644 20.9591 4.96544 21.1496 4.90769 21.0053V21.0053ZM5.58082 21.4054C5.75369 21.042 5.89957 21.8104 5.58082 21.4054V21.4054ZM7.47682 22.4606C7.47569 22.3208 7.51319 22.6635 7.47682 22.4606V22.4606ZM7.36732 22.2172C7.10444 21.5681 7.61219 22.5611 7.36732 22.2172V22.2172ZM7.20569 21.7913C7.16182 21.5235 7.35607 22.1284 7.20569 21.7913V21.7913ZM7.46932 21.3638C7.28819 21.0454 7.69694 19.9612 7.74307 20.634C7.55219 21.1575 7.68832 21.4511 7.82069 20.7484C8.06632 20.1949 7.76744 21.8396 7.46932 21.3638ZM7.73932 19.7509C7.81807 19.6545 7.75694 19.8675 7.73932 19.7509V19.7509ZM7.28782 28.6477C7.18057 28.554 7.30132 28.7066 7.28782 28.6477V28.6477ZM8.21782 29.1176C8.73532 29.2504 8.73269 29.037 8.26507 28.9736C8.01382 28.7396 7.21994 28.4914 7.93057 28.9444C7.97707 29.064 8.12557 29.061 8.21782 29.1176V29.1176ZM6.38144 27.8977C6.66607 28.1107 7.45469 28.4996 6.78757 27.9788C7.01257 27.7178 6.35707 27.5782 6.57419 27.4031C6.02069 27.0649 6.13732 27.0952 6.52544 27.1057C5.86057 26.808 6.62144 26.8309 6.58582 26.6779C6.32932 26.6273 5.31194 26.2256 5.91044 26.7109C5.30219 26.4011 5.76532 26.8264 5.58157 26.7814C4.95907 26.6123 6.13544 27.2554 5.48294 27.0956C5.83957 27.378 6.44332 27.8205 5.63332 27.3945C5.52682 27.5483 6.21269 27.7807 6.38144 27.8977V27.8977ZM7.35382 28.4565C8.53619 28.8368 6.77369 27.9908 7.35382 28.4565V28.4565ZM12.3331 31.4734C12.3484 31.2386 12.1718 31.6733 12.3331 31.4734V31.4734ZM12.8449 31.6883C13.1179 31.4246 12.8562 32.1098 13.2968 31.6238C13.3017 31.2758 13.2837 31.0699 12.7906 31.4925C12.6541 31.5686 12.5937 31.8881 12.8449 31.6883V31.6883ZM4.72094 26.586C4.63732 26.2575 4.13332 26.2583 4.72094 26.586V26.586ZM5.26694 26.9445C5.06407 26.6081 4.54319 26.6396 5.26694 26.9445V26.9445ZM8.37644 28.8195C8.68019 29.0895 9.77069 29.0175 8.74507 28.8529C8.59357 28.6283 7.78094 28.6815 8.37644 28.8195ZM12.6499 31.4591C13.1172 31.0669 12.1973 31.6335 12.6499 31.4591V31.4591ZM13.6219 32.1266C13.6249 32.0006 13.4206 32.1814 13.6219 32.1266V32.1266ZM13.6234 31.9504C14.1406 31.4021 13.1224 31.9826 13.6234 31.9504V31.9504ZM3.37657 25.461C2.93557 24.8321 3.10244 24.5494 2.67757 24.0356C2.59657 23.6426 1.94782 22.7513 2.34194 23.6955C2.70269 24.2479 2.80957 25.1029 3.37657 25.461ZM13.4611 31.7764C14.4132 31.1614 13.0703 31.5079 13.4611 31.7764V31.7764ZM14.1874 32.0606C14.6644 31.6511 13.8859 31.9755 14.1874 32.0606V32.0606ZM4.55932 25.8908C4.69544 25.6883 4.20682 25.8645 4.55932 25.8908V25.8908ZM14.0359 31.8664C14.4976 31.5694 13.9294 31.6148 13.9523 31.8934L14.0359 31.8664ZM7.77307 27.9191C7.75732 27.7181 7.52932 27.936 7.77307 27.9191V27.9191ZM8.16007 28.1415C8.03669 27.8929 7.97107 28.1809 8.16007 28.1415V28.1415ZM14.7762 32.0674C15.3676 31.6406 14.4181 31.986 14.6524 32.1484L14.7762 32.0674ZM14.5497 31.9583C15.0316 31.5544 14.0416 32.1368 14.5497 31.9583V31.9583ZM15.7069 32.7285C16.0306 32.5118 15.3136 32.6584 15.7069 32.7285V32.7285ZM4.85557 25.7445C5.28869 25.8416 6.58769 26.8121 5.82157 25.812C5.42894 25.6958 5.66444 24.7365 5.26394 24.906C5.53282 25.3553 5.48482 25.5457 4.92082 25.263C4.21207 24.9165 4.52219 25.4344 4.66132 25.5769C4.47232 25.6196 4.91107 25.7415 4.85557 25.7445V25.7445ZM2.88119 24.1853C2.95882 23.8639 2.16644 22.4198 2.50694 23.4611C2.62957 23.6794 2.61719 24.0926 2.88119 24.1853ZM6.50557 26.4199C6.28169 26.2331 6.49469 26.3929 6.50557 26.4199V26.4199ZM7.05494 26.5477C7.05494 26.208 6.44744 26.4094 7.05494 26.5477V26.5477ZM11.8182 29.55C11.7271 29.3183 11.4593 29.5448 11.8182 29.55V29.55ZM12.0469 29.7169C12.0128 29.5868 11.9149 29.7424 12.0469 29.7169V29.7169ZM13.9347 30.9064C14.1162 30.7729 13.7082 30.8891 13.9347 30.9064V30.9064ZM3.86707 24.4369C4.38644 24.2359 3.31019 24.2936 3.86707 24.4369V24.4369ZM11.3986 29.1814C11.3929 28.8458 11.0674 29.2654 11.3986 29.1814V29.1814ZM3.66194 23.9588C3.99532 23.8459 3.35294 23.8845 3.66194 23.9588V23.9588ZM4.62982 24.4275C4.62457 24.3173 4.52782 24.4699 4.62982 24.4275V24.4275ZM16.4408 31.6699C16.8698 31.584 17.8474 31.8881 18.0053 31.5563C17.4841 31.5435 16.2031 31.1891 16.1427 31.6406L16.2567 31.6586L16.4408 31.6699ZM4.93769 24.5055C4.94557 24.1643 4.67219 24.4924 4.93769 24.5055V24.5055ZM2.39219 22.7393C2.27669 22.0901 1.95232 22.6406 2.39219 22.7393V22.7393ZM2.99894 22.8915C3.00682 22.683 2.44357 22.704 2.99894 22.8915V22.8915ZM3.34619 23.0621C3.24569 22.9811 3.26782 23.1645 3.34619 23.0621V23.0621ZM5.52907 24.4624C5.63219 24.3675 5.28569 24.3926 5.52907 24.4624V24.4624ZM3.11557 22.6778C3.05632 22.1876 2.41169 22.6046 3.11557 22.6778V22.6778ZM1.86982 21.8704C1.85257 21.6439 1.74907 21.9555 1.86982 21.8704V21.8704ZM2.05544 21.7305C2.02544 21.4616 1.89644 21.7643 2.05544 21.7305V21.7305ZM3.07807 22.3406C3.51082 22.1711 2.29057 21.9893 2.98957 22.3088L3.07807 22.3406ZM16.7689 30.7976C17.0461 30.5438 16.4176 30.7193 16.7689 30.7976V30.7976ZM18.4231 31.6545C18.5341 31.3275 18.1433 31.698 18.4231 31.6545V31.6545ZM3.18307 21.8051C3.22844 21.4871 2.83957 21.8678 3.18307 21.8051V21.8051ZM1.72732 20.8298C1.64932 20.3816 1.66019 19.5953 2.40757 19.8608C1.40969 20.0591 3.09869 21.1016 2.88569 20.2781C3.30532 20.2991 3.70619 20.0303 3.48644 20.4375C4.31332 20.3468 4.88632 19.6294 5.68544 19.7299C6.30757 19.6474 6.98819 19.5847 7.65832 19.3342C8.20994 19.2949 8.74094 18.7013 8.43869 18.3495C7.68682 18.2858 6.89969 18.3802 6.06869 18.5452C5.14807 18.7365 4.31144 19.0999 3.38219 19.2562C2.47619 19.3781 3.56407 19.5919 3.30419 19.6391C2.83207 19.8034 3.86819 19.9136 3.24307 20.0865C2.85719 20.013 2.45519 19.8806 2.62019 19.4738C1.75282 19.5866 0.990068 19.9462 1.67557 20.829L1.72732 20.8298V20.8298ZM3.81832 19.7651C4.02157 19.0159 4.90769 20.3816 4.15132 19.8645C4.06132 19.7966 3.91244 19.7415 3.81832 19.7651ZM3.85769 19.4014C4.15132 19.1831 4.01332 19.5244 3.85769 19.4014V19.4014ZM4.23007 19.4078C4.25707 19.0631 5.08394 19.5904 4.36657 19.5319L4.23007 19.4078ZM4.74007 19.203C4.92644 18.9848 4.79407 19.3958 4.74007 19.203V19.203ZM4.87057 19.1156C5.18069 18.7429 6.62594 18.8771 5.56807 19.0789C5.28457 18.8655 5.06744 19.2049 4.87057 19.1156ZM6.75757 18.8246C6.71069 17.8065 7.69507 19.1858 6.75757 18.8246V18.8246ZM7.29307 18.8209C7.48844 18.309 8.05282 18.6154 7.38382 18.7181C7.39807 18.7733 7.36394 18.9836 7.29307 18.8209ZM2.97194 21.5419C3.55657 21.1838 2.35132 21.2306 2.97194 21.5419V21.5419ZM3.40432 21.6615C3.60944 21.4436 2.95844 21.5734 3.40432 21.6615V21.6615ZM2.13007 20.7578C2.46419 20.5005 1.73444 20.6599 2.13007 20.7578V20.7578ZM19.3992 31.5611C19.4093 31.263 19.1438 31.695 19.3992 31.5611V31.5611ZM17.6446 30.3638C17.6948 30.021 17.4188 30.3934 17.6446 30.3638V30.3638ZM19.8818 31.6766C20.3491 31.6789 21.2974 31.5315 20.2808 31.5319C20.1211 31.5563 19.3516 31.5518 19.8818 31.6766ZM3.78457 21.4515C4.16294 21.426 4.37632 21.0345 3.71107 21.0566C2.68094 20.9509 4.62007 21.4099 3.57869 21.2786C3.43957 21.3709 3.77669 21.477 3.78457 21.4515ZM4.11757 21.6199C4.07819 21.3776 4.00057 21.7489 4.11757 21.6199V21.6199ZM4.51282 20.5665C4.67669 20.3633 4.28557 20.5121 4.51282 20.5665V20.5665ZM3.25507 18.4646C3.93007 18.2355 4.85332 17.9771 5.17169 18.5775C4.84732 18.1875 5.04044 17.8031 5.34719 18.3739C5.78032 18.951 5.99669 18.1114 5.71544 17.9175C6.03644 18.3161 6.40132 18.5051 5.93032 17.9426C6.44257 17.3269 4.90507 18.0236 4.55594 18.0165C4.38757 18.0915 2.82007 18.4159 3.25507 18.4646V18.4646ZM3.65069 17.7071C4.03507 17.4165 4.98194 17.88 4.37444 17.418C4.31482 17.3659 3.04507 17.7686 3.65069 17.7071ZM5.05432 17.7653C5.50432 17.7765 4.85969 17.1596 5.39632 17.439C5.30857 17.1514 4.77157 17.0978 4.50907 16.9823C4.36019 17.2459 4.81094 17.7686 5.05432 17.7653V17.7653ZM3.89669 16.4914C4.05269 16.2799 3.62369 16.5986 3.89669 16.4914V16.4914ZM4.47044 16.6283C5.19644 16.5323 4.28519 16.3159 4.32382 16.6208L4.47044 16.6283ZM3.39944 15.7909C2.88794 15.123 4.36094 15.903 3.84119 15.204C3.40394 14.856 2.98432 15.5966 3.39944 15.7909V15.7909ZM9.95857 19.3238C10.1929 18.9083 8.99107 18.7635 9.80107 19.1768C9.87494 19.2011 9.85844 19.3519 9.95857 19.3238Z" fill="white"/>
<path d="M21.0236 16.4573C20.9399 16.7884 20.8878 17.343 20.8683 18.1222C20.8683 18.2756 20.7993 18.3521 20.6609 18.3521C20.5229 18.3521 20.4266 18.2854 20.3726 18.1522C20.2244 17.7919 20.0838 17.541 19.9507 17.3974C19.7932 17.2298 19.5832 17.1285 19.3218 17.094C19.0406 17.0497 18.3404 17.0272 17.2203 17.0272C16.9642 17.0272 16.7958 17.0546 16.7174 17.1086C16.6679 17.1431 16.6436 17.2174 16.6436 17.3314V20.6831C16.6436 20.7971 16.7148 20.8508 16.8577 20.8463C17.2968 20.841 17.9332 20.811 18.7664 20.757C18.9292 20.7375 19.0391 20.6839 19.0957 20.598C19.1527 20.5121 19.2082 20.2886 19.2622 19.9282C19.2967 19.731 19.4126 19.6545 19.6098 19.6991C19.7778 19.7336 19.8498 19.8101 19.8247 19.9282C19.6863 20.5995 19.6417 21.4725 19.6912 22.548C19.6964 22.6762 19.6151 22.7453 19.4474 22.755C19.3091 22.77 19.2228 22.6958 19.1883 22.533C19.0604 21.9165 18.8219 21.5876 18.4747 21.5449C18.1267 21.5036 17.5608 21.4826 16.7767 21.4826C16.6878 21.4826 16.6439 21.5137 16.6439 21.5782V24.909C16.6439 25.155 16.7347 25.323 16.9173 25.4119C17.0609 25.4854 17.3688 25.5521 17.8424 25.6114C18.0847 25.6354 18.1901 25.7426 18.1608 25.9294C18.1308 26.0925 17.9141 26.1562 17.5094 26.1217C16.3402 26.0284 15.3761 26.0336 14.6167 26.1371C14.4044 26.166 14.2987 26.0805 14.2987 25.8784C14.2987 25.7501 14.4044 25.6763 14.6167 25.6564C15.1001 25.6016 15.3416 25.1775 15.3416 24.3833V18.0476C15.3416 17.7229 15.2838 17.4724 15.1679 17.2976C15.0517 17.1221 14.8361 16.9624 14.5203 16.8199C14.3231 16.731 14.2496 16.6099 14.2987 16.4569C14.3231 16.3631 14.3628 16.3114 14.4168 16.3016C14.4659 16.2866 14.5972 16.2967 14.8087 16.3312C15.1196 16.3807 15.8523 16.4055 17.0062 16.4055C18.3682 16.4055 19.5442 16.3755 20.5361 16.3166C20.8664 16.2968 21.0318 16.3238 21.0318 16.3976C21.0314 16.4178 21.0286 16.4378 21.0236 16.4573V16.4573ZM25.8333 25.8626C25.8333 26.0595 25.7219 26.1465 25.4999 26.1206C24.8201 26.0572 23.9759 26.0663 22.9698 26.1503C22.7673 26.1705 22.6432 26.1649 22.5956 26.136C22.5487 26.1064 22.5254 26.025 22.5254 25.8911C22.5254 25.7734 22.6597 25.6736 22.9286 25.5923C23.1978 25.5109 23.3321 25.2675 23.3321 24.8633V18.1669C23.3321 17.7667 23.2739 17.4735 23.1584 17.286C23.0422 17.0985 22.8389 16.953 22.5479 16.8499C22.3949 16.7955 22.3184 16.719 22.3184 16.62C22.3184 16.4722 22.4294 16.3612 22.6511 16.2874C22.9871 16.1786 23.3347 16.0117 23.6951 15.7841C23.9909 15.6064 24.1784 15.5186 24.2572 15.5186C24.4398 15.5186 24.5309 15.6439 24.5309 15.8959C24.5309 15.876 24.5208 16.1227 24.5013 16.6354C24.4871 17.1236 24.4818 17.6044 24.4871 18.0784L24.5159 24.6855C24.5159 24.987 24.5902 25.2056 24.7383 25.341C24.8864 25.4767 25.1403 25.5667 25.4999 25.611C25.7219 25.6346 25.8333 25.719 25.8333 25.8626V25.8626ZM32.5811 25.3661C32.5811 25.4704 32.3924 25.6268 32.0156 25.836C31.6379 26.046 31.3357 26.1506 31.1088 26.1506C30.9161 26.1506 30.7466 26.0576 30.5984 25.8694C30.4503 25.6823 30.3468 25.5885 30.2872 25.5885C30.2433 25.5885 30.0093 25.6901 29.5848 25.8915C29.1611 26.0944 28.7336 26.196 28.3049 26.196C27.9007 26.196 27.5624 26.0771 27.2909 25.8409C26.9954 25.5795 26.8469 25.2236 26.8469 24.7748C26.8469 23.9216 27.8234 23.31 29.7772 22.9399C30.1124 22.8758 30.2827 22.74 30.2868 22.5326L30.3026 22.059C30.3314 21.2501 29.9741 20.8459 29.2293 20.8459C29.0174 20.8459 28.8157 21.0349 28.6259 21.4151C28.4366 21.795 28.1639 21.9997 27.8088 22.0297C27.4046 22.0687 27.2017 21.8985 27.2017 21.519C27.2017 21.282 27.5032 21.006 28.1047 20.6899C28.7358 20.3599 29.3433 20.1945 29.9249 20.1945C30.9262 20.1945 31.4223 20.6707 31.4122 21.6229L31.3822 24.6709C31.3781 24.9915 31.5138 25.152 31.7898 25.152C31.8442 25.152 31.9477 25.1396 32.1003 25.1149C32.1886 25.0986 32.2776 25.0863 32.3669 25.0778C32.5098 25.0778 32.5811 25.1745 32.5811 25.3661V25.3661ZM30.3029 23.6794C30.3074 23.556 30.2789 23.4742 30.2171 23.4352C30.1559 23.3959 30.0584 23.3884 29.9253 23.4127C28.7362 23.625 28.1422 24.0124 28.1422 24.5741C28.1422 25.1415 28.4504 25.4254 29.0669 25.4254C29.3137 25.4254 29.5679 25.3789 29.8289 25.2855C30.1349 25.1764 30.2876 25.0455 30.2876 24.8929L30.3029 23.6794V23.6794ZM38.1014 24.4852C38.1014 25.0087 37.9001 25.4243 37.4984 25.7325C37.0968 26.0411 36.5478 26.1952 35.8514 26.1952C35.3887 26.1952 34.9241 26.1461 34.4606 26.0468C34.0612 25.9579 33.8291 25.8769 33.7653 25.803C33.7256 25.7332 33.7061 25.3961 33.7061 24.7894C33.7061 24.5273 33.7653 24.3919 33.8846 24.3821C34.0019 24.3671 34.1032 24.4312 34.1876 24.5741C34.5573 25.2206 35.1543 25.5442 35.9778 25.5442C36.6731 25.5442 37.0207 25.302 37.0207 24.8186C37.0207 24.6071 36.9427 24.429 36.7841 24.2861C36.6112 24.123 36.2763 23.9329 35.7779 23.7161C35.0576 23.3955 34.5764 23.1143 34.3349 22.8724C34.0736 22.6159 33.9423 22.2709 33.9423 21.8362C33.9423 21.3037 34.1471 20.8894 34.5569 20.5935C34.9372 20.3078 35.4446 20.1645 36.0806 20.1645C36.4803 20.1645 36.8456 20.1964 37.1759 20.2605C37.5314 20.325 37.7163 20.4037 37.7313 20.4975C37.7703 20.7735 37.8521 21.1733 37.9747 21.6968C37.9901 21.7605 37.9203 21.8122 37.7677 21.8516C37.6046 21.8861 37.4966 21.8588 37.4426 21.7706C37.0522 21.1339 36.5598 20.8155 35.9624 20.8155C35.2867 20.8155 34.9484 21.0326 34.9484 21.4669C34.9484 21.7091 35.0403 21.9008 35.2222 22.0436C35.3853 22.167 35.7674 22.3594 36.3693 22.6211C37.0008 22.8923 37.4298 23.1368 37.6567 23.3535C37.9541 23.6348 38.1014 24.0124 38.1014 24.4852V24.4852ZM46.6848 25.8176C46.6848 25.9905 46.5686 26.082 46.3368 26.0914C45.9911 26.0966 45.5399 26.1206 44.9827 26.1649C44.7067 26.2196 44.5091 26.1855 44.3906 26.0621C43.6113 25.2233 42.9502 24.3454 42.4076 23.4277C42.3637 23.349 42.3063 23.3096 42.2377 23.3096C42.1533 23.3096 42.0082 23.3839 41.8016 23.5316C41.5691 23.6595 41.4532 23.8421 41.4532 24.0784C41.4532 24.2468 41.4581 24.4882 41.4678 24.8044C41.4776 25.1197 41.5563 25.3271 41.7048 25.4254C41.8083 25.4951 42.0476 25.5491 42.4222 25.5885C42.6539 25.6181 42.7702 25.7048 42.7702 25.8473C42.7702 25.9613 42.7514 26.0314 42.7151 26.0584C42.6783 26.0857 42.5804 26.0918 42.4226 26.0768C41.9294 26.0329 41.0962 26.0576 39.9213 26.1506C39.6258 26.175 39.4653 26.1386 39.4413 26.0396C39.4295 25.9911 39.4243 25.9411 39.4259 25.8911C39.4259 25.7389 39.5763 25.6226 39.8774 25.5442C40.1493 25.4745 40.2843 25.1569 40.2843 24.5895V18.1222C40.2843 17.718 40.2453 17.4367 40.1666 17.2792C40.0582 17.0764 39.8306 16.9185 39.4856 16.8049C39.3228 16.7509 39.2418 16.6747 39.2418 16.5757C39.2418 16.4325 39.3581 16.3215 39.5894 16.2431C39.9622 16.1184 40.3175 15.9468 40.6469 15.7324C40.9188 15.5546 41.0864 15.4657 41.1506 15.4657C41.3527 15.4657 41.4543 15.594 41.4543 15.8509C41.4543 15.816 41.4521 16.0605 41.4464 16.5829C41.4416 16.9432 41.4389 17.4266 41.4389 18.0337L41.4539 22.665C41.4539 22.794 41.4888 22.8577 41.5571 22.8577C41.6306 22.8577 41.7446 22.794 41.8976 22.665C42.4111 22.2585 42.9142 21.8392 43.4066 21.4072C43.5254 21.2839 43.5843 21.1856 43.5843 21.1114C43.5843 20.9783 43.3848 20.8845 42.9854 20.8301C42.8129 20.8099 42.7304 20.7139 42.7406 20.541C42.7559 20.3689 42.8422 20.2946 43.0001 20.3194C43.3552 20.3689 43.8734 20.3959 44.5537 20.4008C45.0277 20.4053 45.4987 20.4083 45.9674 20.4083C46.1201 20.4135 46.1966 20.5043 46.1966 20.682C46.1966 20.8496 46.0758 20.9407 45.8343 20.9557C45.4628 20.9678 45.0976 21.0559 44.7614 21.2145C44.2923 21.4267 43.7917 21.7991 43.2588 22.3316C43.2407 22.3439 43.2259 22.3604 43.2157 22.3796C43.2054 22.3989 43.2 22.4204 43.1999 22.4423C43.1999 22.5116 43.2836 22.6766 43.4516 22.9384C44.0684 23.8759 44.6504 24.5835 45.1976 25.062C45.5482 25.3628 45.8759 25.5131 46.1819 25.5131C46.4084 25.5131 46.5494 25.5293 46.6034 25.5615C46.6574 25.5945 46.6848 25.6796 46.6848 25.8176V25.8176Z" fill="white"/>
</svg>