<svg xmlns="http://www.w3.org/2000/svg" width="48" height="48" viewBox="0 0 48 48" fill="none">
<path d="M11.9438 21.7162H6.40881V23.3587H10.3351C10.1401 25.6612 8.22381 26.6437 6.41631 26.6437C5.25267 26.6437 4.13669 26.1815 3.31388 25.3587C2.49106 24.5359 2.02881 23.4199 2.02881 22.2562C2.02881 21.0926 2.49106 19.9766 3.31388 19.1538C4.13669 18.331 5.25267 17.8687 6.41631 17.8687C7.51926 17.867 8.57988 18.2932 9.37506 19.0575L10.5263 17.865C9.41431 16.7899 7.9216 16.1993 6.37506 16.2225C5.58269 16.2282 4.7992 16.3898 4.06932 16.6983C3.33944 17.0067 2.67746 17.4559 2.12118 18.0202C1.5649 18.5845 1.12521 19.2529 0.82722 19.9871C0.529228 20.7213 0.378768 21.507 0.384431 22.2994C0.390095 23.0917 0.55177 23.8752 0.860227 24.6051C1.16868 25.335 1.61788 25.997 2.18217 26.5532C2.74646 27.1095 3.41479 27.5492 4.14901 27.8472C4.88322 28.1452 5.66894 28.2957 6.46131 28.29C9.69006 28.29 12.0563 26.0775 12.0563 22.8037C12.063 22.4386 12.029 22.0739 11.9551 21.7162H11.9438Z" fill="#4885ED"/>
<path d="M16.4775 20.5275C15.7119 20.5305 14.9643 20.76 14.3289 21.1872C13.6936 21.6144 13.1989 22.2202 12.9073 22.9281C12.6157 23.636 12.5401 24.4144 12.6902 25.1651C12.8403 25.9159 13.2093 26.6054 13.7507 27.1468C14.2921 27.6881 14.9816 28.0571 15.7323 28.2072C16.4831 28.3573 17.2615 28.2818 17.9694 27.9902C18.6773 27.6986 19.283 27.2039 19.7102 26.5686C20.1374 25.9332 20.367 25.1856 20.37 24.42C20.3781 23.9066 20.2829 23.3968 20.0902 22.9209C19.8974 22.445 19.611 22.0126 19.2479 21.6495C18.8848 21.2865 18.4525 21 17.9766 20.8073C17.5007 20.6145 16.9909 20.5194 16.4775 20.5275V20.5275ZM16.5 22.05C16.9719 22.0222 17.4413 22.1368 17.8472 22.379C18.2532 22.6213 18.577 22.9799 18.7767 23.4084C18.9764 23.8369 19.0427 24.3155 18.9671 24.7821C18.8914 25.2487 18.6773 25.6819 18.3525 26.0254C18.0277 26.3688 17.6071 26.6068 17.1454 26.7083C16.6837 26.8099 16.2022 26.7704 15.7632 26.5949C15.3242 26.4195 14.9481 26.1161 14.6837 25.7243C14.4192 25.3325 14.2785 24.8702 14.28 24.3975C14.2642 24.0958 14.3099 23.794 14.4143 23.5105C14.5186 23.227 14.6795 22.9676 14.887 22.7481C15.0946 22.5286 15.3446 22.3536 15.6219 22.2336C15.8991 22.1136 16.1979 22.0511 16.5 22.05V22.05Z" fill="#DB3236"/>
<path d="M24.96 20.5275C24.1942 20.5297 23.4462 20.7587 22.8104 21.1854C22.1745 21.6122 21.6793 22.2176 21.3871 22.9255C21.0949 23.6333 21.0189 24.4118 21.1685 25.1628C21.3182 25.9138 21.6869 26.6037 22.2281 27.1455C22.7693 27.6872 23.4589 28.0566 24.2097 28.207C24.9606 28.3574 25.7392 28.2821 26.4473 27.9906C27.1554 27.699 27.7614 27.2044 28.1887 26.569C28.6161 25.9335 28.8458 25.1858 28.8487 24.42C28.8568 23.9069 28.7618 23.3974 28.5693 22.9218C28.3767 22.4461 28.0907 22.0139 27.728 21.6509C27.3653 21.2879 26.9334 21.0014 26.4579 20.8084C25.9825 20.6154 25.4731 20.5199 24.96 20.5275ZM24.9825 22.05C25.4544 22.0222 25.9238 22.1368 26.3297 22.379C26.7357 22.6213 27.0595 22.9799 27.2592 23.4084C27.4589 23.8369 27.5252 24.3155 27.4496 24.7821C27.3739 25.2487 27.1598 25.6819 26.835 26.0254C26.5102 26.3688 26.0896 26.6068 25.6279 26.7083C25.1663 26.8099 24.6847 26.7704 24.2457 26.5949C23.8068 26.4195 23.4306 26.1161 23.1662 25.7243C22.9017 25.3325 22.761 24.8702 22.7625 24.3975C22.7467 24.0958 22.7924 23.794 22.8968 23.5105C23.0011 23.227 23.162 22.9676 23.3695 22.7481C23.5771 22.5286 23.8271 22.3536 24.1044 22.2336C24.3816 22.1136 24.6804 22.0511 24.9825 22.05V22.05Z" fill="#F4C20D"/>
<path d="M33.2738 20.5313C31.1888 20.5313 29.55 22.3575 29.55 24.405C29.5346 25.4056 29.912 26.3723 30.6011 27.0979C31.2902 27.8234 32.2362 28.2501 33.2363 28.2863C33.6398 28.3082 34.0428 28.2344 34.4124 28.0708C34.7819 27.9072 35.1075 27.6585 35.3625 27.345V28.095C35.3625 29.4338 34.5488 30.2325 33.3225 30.2325C32.8949 30.229 32.478 30.0979 32.1253 29.8561C31.7725 29.6142 31.5 29.2726 31.3425 28.875L29.8425 29.4975C30.1326 30.1805 30.6189 30.7621 31.2397 31.1686C31.8605 31.5752 32.588 31.7884 33.33 31.7813C35.4038 31.7813 36.9825 30.4763 36.9825 27.7388V20.7638H35.3663V21.42C35.1012 21.131 34.7773 20.9021 34.4163 20.7488C34.0554 20.5955 33.6658 20.5213 33.2738 20.5313V20.5313ZM33.4238 22.05C34.4475 22.05 35.4938 22.9238 35.4938 24.4125C35.4938 25.9013 34.4475 26.7638 33.4013 26.7638C33.1054 26.7562 32.8141 26.6892 32.5447 26.5667C32.2752 26.4442 32.0332 26.2687 31.8331 26.0507C31.6329 25.8327 31.4787 25.5767 31.3796 25.2978C31.2805 25.0189 31.2385 24.7229 31.2563 24.4275C31.2563 22.9275 32.3288 22.05 33.4238 22.05V22.05Z" fill="#4885ED"/>
<path d="M44.2238 20.52C42.2588 20.52 40.605 22.0838 40.605 24.3938C40.5856 24.9028 40.6701 25.4105 40.8534 25.8859C41.0367 26.3612 41.3149 26.7942 41.6711 27.1585C42.0273 27.5227 42.454 27.8106 42.9251 28.0045C43.3962 28.1984 43.9019 28.2943 44.4113 28.2863C45.0501 28.2875 45.6797 28.1332 46.2455 27.8365C46.8113 27.5399 47.2964 27.1099 47.6588 26.5838L46.3163 25.6913C46.1218 26.0213 45.8435 26.294 45.5096 26.4817C45.1757 26.6694 44.798 26.7654 44.415 26.76C44.0172 26.7764 43.6235 26.6734 43.2847 26.4643C42.9458 26.2551 42.6774 25.9493 42.5138 25.5863L47.715 23.43L47.445 22.7963C47.1971 22.1379 46.7571 21.5692 46.182 21.164C45.607 20.7588 44.9234 20.5357 44.22 20.5238L44.2238 20.52ZM44.2913 22.02C44.5847 22.0074 44.8756 22.0786 45.13 22.2254C45.3844 22.3722 45.5916 22.5884 45.7275 22.8488L42.255 24.3C42.2378 24.0163 42.2769 23.732 42.3701 23.4636C42.4634 23.1951 42.6088 22.9477 42.7981 22.7358C42.9874 22.5238 43.2168 22.3514 43.4731 22.2286C43.7294 22.1057 44.0075 22.0348 44.2913 22.02V22.02Z" fill="#DB3236"/>
<path d="M38.1262 28.0575H39.8362V16.6237H38.1262V28.0575Z" fill="#3CBA54"/>
</svg>