<svg xmlns="http://www.w3.org/2000/svg" width="48" height="48" viewBox="0 0 48 48" fill="none">
<path fill-rule="evenodd" clip-rule="evenodd" d="M31.0511 12.8362C30.0746 9.79575 28.5083 7.10475 26.301 4.78912C25.743 4.20337 25.1228 3.66675 24.7335 2.93812C24.4875 2.47687 24.2531 2.00925 24.0135 1.545L23.8613 1.16212L23.8189 1.31287C23.799 2.07037 23.37 2.58375 22.836 3.06337C22.2345 3.60262 21.675 4.18837 21.0975 4.75425L19.3215 7.09012L17.8856 9.73087L16.9253 12.324L16.8964 12.3641C16.368 14.1 16.1074 15.885 15.9795 17.6873C15.9311 18.3649 15.9866 19.0519 16.0245 19.7329C16.0789 20.7064 16.248 21.663 16.5015 22.6054C17.4229 26.0276 19.293 28.866 21.8501 31.278C22.3249 31.7261 22.8383 32.1337 23.3336 32.5597L23.553 33.3127L23.757 34.4812L23.8545 35.7011C23.8534 35.9486 23.8433 36.1972 23.8579 36.444C23.862 36.5074 23.9445 36.5659 23.991 36.6266L24.405 36.7721L24.8359 36.9397L24.762 35.8556L24.7586 34.7876L24.9075 33.1609L25.0155 32.8069L25.3249 32.259C25.7066 31.9523 26.1158 31.6733 26.4634 31.3316C27.0923 30.714 27.72 30.0878 28.2829 29.4109C29.0152 28.5335 29.6407 27.5723 30.1463 26.5474C30.4834 25.86 30.8014 25.1588 31.0643 24.4406C31.296 23.8076 31.4396 23.142 31.6223 22.4906L31.6703 22.35C32.0471 20.592 32.1105 18.816 31.9721 17.0287C31.8608 15.5884 31.5221 14.1982 31.0511 12.8362V12.8362ZM23.5886 31.6894C23.6464 31.4002 23.718 31.1126 23.7701 30.8224C23.718 31.1126 23.6468 31.4002 23.5886 31.6894ZM24.87 31.8889L24.6278 31.3583L24.87 31.8889L25.2259 32.193L24.87 31.8889ZM39.9278 38.6115C39.618 38.0179 39.1635 37.5671 38.5628 37.2712C38.0595 37.0237 37.5184 36.915 36.9619 36.8993C36.5449 36.8873 36.1264 36.9086 35.7086 36.9139C35.3378 36.9184 34.9665 36.9248 34.5956 36.9214C34.1595 36.9169 33.7234 36.9037 33.2873 36.8914C33.2149 36.8891 33.1635 36.9038 33.1298 36.9773C33.0769 37.0916 33.0143 37.2019 32.9494 37.3271L33.0221 37.3504C33.2385 37.3886 33.456 37.4212 33.6713 37.4644C33.948 37.5195 34.0725 37.6785 34.0853 37.9117C34.104 38.244 34.1115 38.577 34.1104 38.91C34.1048 40.2278 34.0954 41.5455 34.0856 42.8629C34.0849 42.9499 34.0834 43.0406 34.0598 43.1224C34.0324 43.2169 34.0028 43.3391 33.9323 43.3856C33.8054 43.4671 33.663 43.5214 33.5141 43.545C33.3038 43.5795 33.2685 43.5889 33.2029 43.7959L33.1744 43.8994C33.1429 44.0123 33.1598 44.0344 33.2775 44.0355C33.9533 44.043 34.6286 44.0576 35.304 44.0554C35.9201 44.0531 36.5363 44.0906 37.1501 43.9747C37.7303 43.8656 38.2718 43.6744 38.766 43.3507C39.4073 42.9304 39.8685 42.3686 40.1119 41.6355C40.3084 41.0434 40.3523 40.4392 40.2855 39.8201C40.2439 39.3982 40.1225 38.9881 39.9278 38.6115V38.6115ZM38.7439 42.2344C38.3824 42.9071 37.8431 43.3564 37.0725 43.4749C36.5899 43.5487 36.1065 43.5274 35.6464 43.3447C35.355 43.2292 35.2466 42.9776 35.2376 42.6803C35.2294 42.3888 35.2253 42.0973 35.2253 41.8058C35.2238 40.7805 35.2238 39.7552 35.2253 38.7304C35.226 38.4075 35.2316 38.0839 35.2369 37.7606C35.2406 37.5334 35.2883 37.4572 35.5099 37.4389C36.4834 37.3571 37.4123 37.4621 38.1836 38.1472C38.6606 38.571 38.9321 39.1114 39.045 39.732C39.0919 39.9908 39.1061 40.2555 39.1354 40.518C39.1118 41.1172 39.0308 41.7004 38.7439 42.2344ZM46.9148 41.124C46.7228 40.6568 46.359 40.3639 45.9019 40.1764C45.7459 40.1123 45.585 40.0594 45.4166 39.9971L45.4755 39.9596C45.6574 39.843 45.8599 39.7489 46.0166 39.6052C46.3976 39.2561 46.5559 38.817 46.4816 38.2954C46.4111 37.7993 46.1636 37.4351 45.7215 37.1989C45.3203 36.9851 44.8875 36.9071 44.4398 36.9075C43.665 36.9082 42.8899 36.9199 42.1151 36.9214C41.8481 36.9218 41.5811 36.9019 41.3141 36.8981C41.2624 36.8974 41.1855 36.9105 41.1634 36.945C41.1023 37.0387 41.0618 37.1467 41.0183 37.251C40.9931 37.3117 41.0179 37.3451 41.0873 37.3541C41.2736 37.3796 41.4596 37.4115 41.6464 37.4392C41.9044 37.4779 42.0293 37.6121 42.045 37.872L42.0484 38.0261C42.0488 38.8342 42.0514 39.6424 42.048 40.4505C42.0432 41.2575 42.0356 42.0645 42.0251 42.8715C42.024 42.9731 42.0101 43.0751 41.9955 43.176C41.9734 43.3283 41.892 43.4333 41.736 43.4663L41.2946 43.5532C41.2425 43.5637 41.1671 43.5622 41.1458 43.5945C41.0648 43.7156 40.9995 43.848 41.0085 44.0077L41.0539 44.0201L42.5363 44.0565L42.8336 44.0554C43.3466 44.0494 43.8604 44.0595 44.3726 44.0332C44.9273 44.0055 45.4481 43.8409 45.9296 43.5577C46.4423 43.2559 46.8368 42.858 46.977 42.2595C47.067 41.8774 47.0674 41.493 46.9148 41.124V41.124ZM43.1486 37.6811C43.1509 37.5188 43.2225 37.4482 43.3838 37.4441C43.7809 37.4332 44.1754 37.4355 44.5586 37.5724C45.0544 37.7494 45.3593 38.1769 45.3536 38.6992C45.351 38.8999 45.354 39.0986 45.2801 39.2914C45.1343 39.6709 44.8545 39.8711 44.4578 39.9101C44.2508 39.9311 44.0419 39.9334 43.8574 39.9431L43.2416 39.9161C43.1599 39.9131 43.1243 39.8771 43.1246 39.7931L43.1486 37.6811V37.6811ZM45.7009 42.7414C45.5025 43.173 45.141 43.3999 44.6884 43.4786C44.3276 43.5405 43.9578 43.5243 43.6039 43.431C43.3391 43.3631 43.2311 43.1505 43.1783 42.9146C43.1426 42.7568 43.1486 42.5689 43.1456 42.4046C43.1408 42.1511 43.1445 41.625 43.1445 41.625H43.1393C43.1393 41.25 43.1404 40.9253 43.1381 40.5656C43.1378 40.488 43.1509 40.4494 43.2458 40.4524C43.5825 40.4625 43.9204 40.4681 44.2571 40.4812C44.5583 40.4929 44.8403 40.5821 45.1054 40.725C45.5089 40.9425 45.7519 41.2755 45.8186 41.733C45.8696 42.0799 45.8479 42.4211 45.7009 42.7414V42.7414ZM8.73076 43.1456L8.73788 41.1067C8.73901 40.8 8.70001 40.4993 8.59951 40.2083C8.32238 39.4069 7.55813 39.042 6.76238 39.3296C6.40051 39.4605 6.07613 39.6589 5.76638 39.8839C5.58601 40.0151 5.58601 40.0151 5.45551 39.828C5.08613 39.2985 4.55851 39.1174 3.94426 39.3127C3.54713 39.4387 3.19988 39.6544 2.87101 39.9049C2.84026 39.9281 2.77838 39.954 2.76001 39.9401C2.72926 39.9173 2.70788 39.8629 2.70863 39.822L2.73113 39.4597C2.73301 39.3836 2.71838 39.3071 2.71088 39.2273C2.56238 39.2786 2.44388 39.33 2.31976 39.36C1.93613 39.4537 1.54988 39.54 1.16401 39.6281C1.07063 39.6495 0.972007 39.6776 0.963007 39.7849C0.953632 39.8903 1.05526 39.9079 1.13401 39.9394C1.29976 40.0061 1.46438 40.077 1.62826 40.149C1.76588 40.2098 1.81726 40.3196 1.81651 40.4674C1.81388 41.0993 1.81801 41.7304 1.81426 42.3623C1.81276 42.6191 1.80076 42.8756 1.78913 43.1325C1.77863 43.3601 1.70101 43.4554 1.48051 43.5127C1.36351 43.5435 1.24463 43.5641 1.12688 43.5919C1.10101 43.5979 1.05676 43.6144 1.05638 43.6271C1.05151 43.7385 1.04551 43.8525 1.06426 43.9609C1.06801 43.9804 1.18576 43.9804 1.25101 43.9879L1.29488 43.9852C1.74938 43.9785 2.20388 43.9714 2.65876 43.9665C2.89988 43.9639 3.14063 43.9661 3.40238 43.9661L3.43051 43.6024C3.28051 43.575 3.14663 43.5544 3.01463 43.5255C2.80876 43.4805 2.72101 43.3714 2.71576 43.1636L2.71201 42.8662C2.70976 42.0949 2.70676 41.3239 2.70676 40.5525C2.70676 40.4404 2.75326 40.3515 2.85188 40.2844C3.06076 40.1434 3.28126 40.0313 3.52538 39.9686C4.03988 39.837 4.48613 40.02 4.68413 40.4576C4.74676 40.5956 4.79588 40.7482 4.80976 40.8982C4.88251 41.6715 4.85101 42.4455 4.80713 43.2188C4.79776 43.3856 4.71938 43.4696 4.55476 43.5105L4.16776 43.5923C4.13663 43.6001 4.09126 43.5791 4.08901 43.605C4.08038 43.7119 4.08526 43.8757 4.08526 43.8757H4.17751L5.35576 43.9144C5.67863 43.9136 6.00188 43.9526 6.32438 43.9609C6.38213 43.962 6.43351 43.9706 6.43688 43.9039C6.44057 43.8002 6.43919 43.6965 6.43276 43.593L6.37126 43.5821L6.03938 43.5075C5.81551 43.4546 5.73826 43.3695 5.73751 43.143C5.73488 42.5846 5.74238 42.0266 5.73751 41.4686C5.73464 41.1495 5.72276 40.8305 5.70188 40.512C5.69626 40.4272 5.70938 40.3717 5.77688 40.3241C5.97253 40.1811 6.19263 40.075 6.42638 40.011C7.15201 39.8197 7.74601 40.2176 7.78351 40.9657C7.82026 41.6872 7.80488 42.4114 7.79926 43.1344C7.79738 43.386 7.71413 43.4621 7.46626 43.5296L7.38076 43.5518C7.12688 43.6125 7.12913 43.6125 7.14413 43.8821C7.14901 43.9665 7.17226 43.9882 7.26226 43.986C7.77938 43.9744 8.29651 43.9714 8.81363 43.9669C9.02513 43.965 9.23663 43.9669 9.46688 43.9669L9.51376 43.6159C9.31163 43.5622 9.12526 43.5225 8.94526 43.4636C8.78626 43.4096 8.73001 43.3136 8.73076 43.1456V43.1456ZM26.5391 40.0553C26.7521 39.8576 26.7536 39.5966 26.694 39.3068C26.5253 39.4834 26.3363 39.5647 26.1206 39.5801C25.8315 39.6007 25.5476 39.5756 25.2784 39.4605C24.5501 39.1477 23.8331 39.1699 23.1184 39.513C22.5173 39.801 22.1475 40.2499 22.1104 40.9305C22.0868 41.3666 22.1685 41.7795 22.4595 42.1264C22.6339 42.3341 22.8578 42.4688 23.1101 42.5618C23.2189 42.6019 23.2271 42.6536 23.136 42.723C23.0687 42.7738 22.999 42.8214 22.9271 42.8655C22.7748 42.9613 22.6216 43.0555 22.4674 43.1482C22.377 43.203 22.3463 43.2728 22.3759 43.3796C22.4625 43.6939 22.6856 43.8754 22.9646 44.0077L23.0663 44.0786L22.9774 44.1675C22.704 44.3891 22.4198 44.5984 22.158 44.8335C21.9383 45.0311 21.8674 45.2959 21.9338 45.588C22.0676 46.1711 22.4543 46.5319 23.0029 46.6976C23.9618 46.9879 24.8621 46.8214 25.683 46.2533C26.1698 45.9161 26.5189 45.4774 26.625 44.8736C26.7439 44.1953 26.367 43.6065 25.6924 43.485C25.2461 43.404 24.7894 43.3807 24.3379 43.329C24.1271 43.305 23.9134 43.2908 23.7083 43.2424C23.5339 43.2011 23.4473 43.059 23.4634 42.9203C23.4795 42.7838 23.6246 42.6566 23.7908 42.6435C24.1253 42.6165 24.453 42.5644 24.7613 42.4234C25.578 42.0499 25.9571 41.3959 25.8623 40.5154C25.8499 40.3969 25.8229 40.2799 25.7985 40.1419C26.0599 40.1857 26.3273 40.2521 26.5391 40.0553V40.0553ZM24.0608 44.1866C24.393 44.1964 24.771 44.217 25.1363 44.3239C25.4576 44.4176 25.722 44.5819 25.8 44.9408C25.8941 45.3743 25.6856 45.8055 25.266 46.0372C24.873 46.254 24.4463 46.272 24.0135 46.2274C23.643 46.1891 23.3096 46.0609 23.0426 45.7871C22.6909 45.4267 22.689 44.928 23.0411 44.5687C23.3558 44.2477 23.5241 44.1814 24.0608 44.1866V44.1866ZM24.8921 41.5759C24.6986 42.195 24.1354 42.2805 23.694 42.0825C23.3179 41.9141 23.154 41.5826 23.0681 41.2042C23.0348 41.0587 23.0269 40.9076 23.0074 40.7588C23.0153 40.5454 23.0505 40.3406 23.1424 40.1486C23.424 39.5573 24.1159 39.5925 24.4988 39.8602C24.663 39.975 24.7774 40.131 24.849 40.3159C25.0084 40.7183 25.0237 41.1635 24.8921 41.5759V41.5759ZM21.3784 43.5495C21.2444 43.529 21.112 43.4994 20.982 43.461C20.754 43.3913 20.7263 43.3485 20.7236 43.1074C20.7169 42.4354 20.7124 41.7634 20.7049 41.0918C20.7011 40.7895 20.6651 40.4914 20.5725 40.2026C20.3288 39.4414 19.5821 39.0326 18.8351 39.2572C18.4211 39.3821 18.0656 39.6142 17.7345 39.8869L17.6138 39.9795L17.6141 39.8554C17.622 39.7125 17.6374 39.5696 17.6363 39.4268C17.6355 39.3521 17.607 39.2771 17.5931 39.2115C17.3108 39.2966 17.0576 39.3821 16.7993 39.4474C16.5401 39.5126 16.2758 39.5569 16.0136 39.6101C15.8835 39.6364 15.7879 39.7151 15.7901 39.8048C15.7935 39.9311 15.8981 39.9555 15.9896 39.9934C16.1554 40.0613 16.3208 40.1299 16.4846 40.2026C16.6016 40.2548 16.6493 40.3515 16.6481 40.4771C16.6399 41.3505 16.6346 42.2243 16.6219 43.098C16.6181 43.374 16.5484 43.4467 16.2769 43.5075L16.1584 43.5311C15.9071 43.5743 15.9 43.5844 15.9173 43.8495L15.9188 43.8934C15.9158 43.9954 15.9604 44.0284 16.0654 44.0272C16.7329 44.0194 17.4008 44.0156 18.0683 44.0183C18.3544 44.0194 18.3851 43.9969 18.3791 43.7029L18.3656 43.5765C18.2021 43.5491 18.0458 43.5292 17.8928 43.4955C17.7326 43.4599 17.6753 43.3942 17.6603 43.2315C17.6464 43.0826 17.6419 42.9315 17.6404 42.7815C17.6329 42.0949 17.6269 41.4083 17.6235 40.722C17.6228 40.5491 17.6546 40.3886 17.8136 40.2772C18.0477 40.11 18.3235 40.0111 18.6105 39.9915C19.206 39.9506 19.6586 40.3035 19.6909 40.8971C19.7306 41.6295 19.7186 42.3645 19.728 43.0984C19.7288 43.1531 19.719 43.2082 19.7115 43.2626C19.6973 43.3699 19.6448 43.4505 19.536 43.4783C19.4299 43.506 19.3223 43.5307 19.2139 43.5472C19.0523 43.5712 19.0489 43.5701 19.0365 43.7333L19.0406 43.8431C19.0598 44.0329 19.0601 44.0273 19.2521 44.0254C19.8979 44.0201 20.5433 44.0167 21.1886 44.0175C21.4586 44.0182 21.4778 44.0055 21.48 43.7273L21.4793 43.6613C21.4834 43.59 21.4515 43.5611 21.3784 43.5495V43.5495ZM30.3979 39.3034C29.721 39.138 29.079 39.261 28.4693 39.5764C27.8768 39.8828 27.4808 40.3564 27.33 41.0104C27.1778 41.6715 27.2505 42.3165 27.5426 42.9304C27.7328 43.329 28.0253 43.6373 28.4235 43.8375C29.3558 44.307 30.4961 44.094 31.2274 43.4659C31.8045 42.9705 32.0164 42.3109 32.0291 41.4945C32.0213 41.4128 32.0134 41.2552 31.9916 41.0992C31.869 40.2105 31.2536 39.5126 30.3979 39.3034V39.3034ZM30.9105 42.7365C30.7309 43.4437 30.1193 43.758 29.4293 43.515C29.0771 43.3913 28.8139 43.1546 28.6369 42.8347C28.2296 42.0997 28.1513 41.3182 28.383 40.5165C28.5375 39.9825 28.977 39.6904 29.4998 39.7271C29.967 39.7598 30.3263 39.984 30.5899 40.3643C30.8678 40.7655 30.975 41.2219 31.0035 41.7011C31.0084 41.778 31.0043 41.8549 31.0043 41.9321L31.0373 41.9359C30.996 42.2033 30.9765 42.4759 30.9105 42.7365V42.7365ZM13.374 39.2917C12.6619 39.129 11.9948 39.2899 11.3768 39.6517C10.8424 39.9645 10.497 40.4317 10.3646 41.0422C10.2405 41.6126 10.2911 42.1732 10.4933 42.7196C10.6163 43.0526 10.8026 43.3455 11.076 43.5739C11.6516 44.0542 12.3244 44.1757 13.0403 44.0419C13.6463 43.9282 14.1788 43.659 14.5658 43.1554C14.928 42.6844 15.066 42.1436 15.0803 41.5575C15.0589 41.3719 15.0536 41.1829 15.0143 41.0017C14.8185 40.0976 14.2898 39.5006 13.374 39.2917V39.2917ZM13.9549 42.7343C13.7813 43.4378 13.1599 43.7599 12.4748 43.5169C12.0349 43.3605 11.7484 43.0384 11.5673 42.6255C11.277 41.9621 11.2178 41.2718 11.4056 40.572C11.5496 40.0369 11.9835 39.6428 12.6476 39.7373C13.0553 39.795 13.3733 40.0031 13.6103 40.3342C13.9305 40.7809 14.0359 41.2924 14.0505 41.8297V41.9396L14.0775 41.9437C14.0381 42.2077 14.0186 42.4763 13.9549 42.7343V42.7343Z" fill="#4FAA41"/>
</svg>