<svg xmlns="http://www.w3.org/2000/svg" width="48" height="48" viewBox="0 0 48 48" fill="none">
<path d="M24 0C10.7625 0 0 10.7625 0 24C0 37.2375 10.7625 48 24 48C37.2375 48 48 37.2375 48 24C48 10.7625 37.2375 0 24 0ZM36.2625 42.9L18.15 15.675H15.6V34.4625H18.15V20.7375L34.725 43.8C31.5375 45.525 27.9 46.5 24 46.5C11.55 46.5375 1.4625 36.45 1.4625 24C1.4625 11.55 11.55 1.4625 24 1.4625C36.45 1.4625 46.5375 11.55 46.5375 24C46.5375 31.9125 42.45 38.8875 36.2625 42.9V42.9Z" fill="white"/>
<path d="M29.4751 27.4875L32.2876 31.725V15.675H29.4751V27.4875Z" fill="white"/>
</svg>