<svg xmlns="http://www.w3.org/2000/svg" width="48" height="48" viewBox="0 0 48 48" fill="none">
<path d="M42.2543 11.3753L25.7006 1.77338C24.6578 1.17938 23.2916 1.17938 22.2405 1.77338L5.5575 11.3753C4.48162 11.9944 3.75 13.158 3.75 14.4026V33.5809C3.75 34.8255 4.497 35.9895 5.57325 36.612L9.97162 39.12C12.0817 40.1595 12.6664 40.1595 13.6264 40.1595C16.7516 40.1595 18.3746 38.2699 18.3746 34.974V16.0403C18.375 15.7729 18.5419 15.375 18.279 15.375H16.1708C15.9038 15.375 15.375 15.7729 15.375 16.0399V34.9736C15.375 36.4346 14.019 37.8885 11.5493 36.6536L7.0035 34.0238C6.84525 33.9375 6.75 33.7639 6.75 33.5809V14.4026C6.75 14.2219 6.92363 14.0404 7.08413 13.9478L23.7259 4.36238C23.8076 4.31898 23.8987 4.29628 23.9912 4.29628C24.0837 4.29628 24.1748 4.31898 24.2565 4.36238L40.7426 13.9455C40.9005 14.0404 40.8754 14.2163 40.8754 14.4026V33.5809C40.8754 33.7639 40.9099 33.942 40.7543 34.0301L24.2044 43.6211C24.0626 43.7063 23.8781 43.7063 23.7225 43.6211L19.4786 41.0903C19.3508 41.016 19.1966 40.9894 19.0736 41.058C17.8942 41.7266 17.6752 41.8155 16.569 42.1991C16.2964 42.294 15.8944 42.4586 16.722 42.9225L22.2712 46.2053C22.801 46.5113 23.402 46.6725 24.0139 46.6725C24.6281 46.6735 25.2317 46.5123 25.7636 46.2053L42.2546 36.612C43.3313 35.985 43.8754 34.8255 43.8754 33.5809V14.4026C43.875 13.158 43.3309 11.9974 42.2543 11.3753V11.3753ZM29.1476 30.5419C24.75 30.5419 23.7817 29.3288 23.4589 27.1421C23.4206 26.9066 23.2211 26.625 22.9811 26.625H20.8324C20.5665 26.625 20.3524 26.9475 20.3524 27.2123C20.3524 30.012 21.8749 33.4043 29.1476 33.4043C34.4119 33.4043 37.4306 31.3586 37.4306 27.7384C37.4306 24.1489 35.0055 23.2069 29.8999 22.5311C24.7391 21.849 24.2149 21.5044 24.2149 20.2954C24.2149 19.2986 24.6589 17.9693 28.4801 17.9693C31.8941 17.9693 33.1526 18.702 33.6705 21.0034C33.7151 21.2198 33.9127 21.375 34.1359 21.375H36.2936C36.4264 21.375 36.5528 21.3214 36.6458 21.2265C36.7361 21.1245 36.7834 20.9966 36.7717 20.8594C36.4369 16.896 33.8044 15.0491 28.4797 15.0491C23.7427 15.0491 20.9175 17.0494 20.9175 20.4023C20.9175 24.039 23.7289 25.044 28.2758 25.4936C33.7151 26.0269 34.1381 26.8219 34.1381 27.8918C34.1381 29.7503 32.6464 30.5419 29.1476 30.5419Z" fill="#83CD29"/>
</svg>