<svg xmlns="http://www.w3.org/2000/svg" width="48" height="48" viewBox="0 0 48 48" fill="none">
<path fill-rule="evenodd" clip-rule="evenodd" d="M18.8422 15.606C17.4615 15.2591 16.0789 15.3705 14.6198 15.5978C14.6198 18.1496 14.6145 20.6329 14.6336 23.1165C14.6344 23.2436 14.8252 23.4649 14.949 23.4818C16.5401 23.6966 18.1226 23.7139 19.6106 22.9886C21.15 22.2386 21.9341 20.6704 21.7309 18.8291C21.5464 17.1525 20.5537 16.0361 18.8422 15.606V15.606ZM47.625 23.9861V1.23188C47.625 0.445875 47.6336 0.375 46.8705 0.375H1.30463C0.5625 0.375 0.375 0.44625 0.375 1.19475V46.7606C0.375 47.5174 0.4695 47.5185 1.20338 47.5185C16.4115 47.5189 31.665 47.5151 46.8731 47.5324C47.463 47.5331 47.6213 47.376 47.6198 46.7978C47.5995 39.1939 47.625 31.5893 47.625 23.9861V23.9861ZM21.132 26.1761C19.0481 26.9194 16.875 26.961 14.625 26.7866V35.25H10.5V34.7243C10.5 27.6386 10.4674 20.5538 10.4475 13.4685C10.4453 12.8801 10.5386 12.5959 11.2016 12.5284C14.3261 12.2089 17.433 11.8496 20.5399 12.5783C23.8796 13.3609 25.8053 15.5689 25.9515 18.6195C26.1326 22.3973 24.4725 24.9848 21.132 26.1761V26.1761ZM37.7483 30.9589C37.5893 33.123 36.369 34.5439 34.3676 35.2309C31.6894 36.1504 29.0257 35.937 26.4082 34.8968C25.9796 34.7261 25.8967 34.5101 26.0381 34.0733C26.2957 33.276 26.4844 32.4563 26.6831 31.716C27.7897 32.0408 28.842 32.4461 29.9321 32.6378C30.702 32.7731 31.5341 32.6936 32.3168 32.571C33.0184 32.4608 33.5231 31.9845 33.6383 31.2315C33.7553 30.4661 33.5246 29.8031 32.8489 29.3959C32.3119 29.0726 31.7201 28.8413 31.1527 28.5701C30.2404 28.134 29.268 27.792 28.4265 27.2464C25.1149 25.0988 26.193 21.1028 28.4029 19.5979C29.5852 18.7931 30.8936 18.4361 32.2942 18.387C33.9416 18.3293 35.5279 18.6135 37.086 19.3706L36.2629 22.2915C35.6104 22.0605 35.0029 21.7605 34.3616 21.6413C33.6007 21.4995 32.8028 21.4204 32.0348 21.483C31.005 21.5674 30.402 22.278 30.402 23.1593C30.402 23.6813 30.6 24.123 31.0354 24.3761C31.6601 24.7395 32.3231 25.0391 32.9801 25.3433C33.6911 25.6721 34.4419 25.9249 35.1262 26.3003C36.9525 27.3015 37.9031 28.8503 37.7483 30.9589Z" fill="#8A2BE2"/>
</svg>