<svg xmlns="http://www.w3.org/2000/svg" width="40" height="40" viewBox="0 0 40 40" fill="none">
<path d="M24.7585 0.832455L23.6389 1.07539L24.5783 1.73109C24.8686 1.93369 25.1731 2.10359 25.453 2.25972L25.4582 2.26262C25.7466 2.42355 26.0096 2.57053 26.2547 2.74072L26.2547 2.74075L26.2596 2.7441C28.3781 4.17814 30.0403 6.27405 31.0866 8.63856C31.3933 9.36075 31.643 9.99128 31.5919 10.6347L31.5902 10.6565L31.5903 10.6784C31.5958 11.3452 31.4994 12.0052 31.3966 12.7093C31.383 12.8022 31.3693 12.8959 31.3557 12.9905C31.2419 13.7837 31.1377 14.6298 31.2249 15.4996C31.2594 15.8799 31.3011 16.2395 31.342 16.593C31.3986 17.0808 31.4538 17.5568 31.4867 18.059C31.5416 18.8938 31.523 19.6943 31.3266 20.4693L31.3235 20.4814L31.321 20.4937C31.2712 20.7422 31.1794 20.9876 31.0638 21.2569C31.0306 21.3343 30.9938 21.4171 30.9555 21.5032C30.869 21.6977 30.7751 21.9091 30.6978 22.114L30.6477 22.2468L30.6748 22.386L30.7383 22.7121L30.9513 23.8066L31.6269 22.9195C31.8419 22.6371 32.0393 22.3417 32.2179 22.0349C33.9518 19.0653 35.3333 15.8733 36.2431 12.5382L36.244 12.5346C36.7187 10.7417 37.0997 8.86413 37.077 6.95092L37.0769 6.94333L37.0766 6.93574C37.0446 6.17865 36.9873 5.16932 36.3771 4.3936C35.2778 2.99477 33.8234 1.91643 32.1656 1.27099L32.1656 1.27098L32.1618 1.26956C29.7961 0.370221 27.1806 0.306882 24.7585 0.832455Z" fill="#326690" stroke="white"/>
<path d="M18.284 1.04841L18.284 1.04842C21.2992 0.660811 24.4668 1.49836 26.8687 3.40958L26.8694 3.41012C28.8346 4.9793 30.3892 7.10686 31.2283 9.5057L31.4698 10.1961L30.7388 10.1705C30.06 10.1466 29.3899 10.1239 28.7582 10.2144C28.1342 10.3038 27.5846 10.4996 27.1381 10.8876L27.1347 10.8905L27.1347 10.8905C26.3583 11.5528 26.2033 12.7481 26.4134 13.8909L26.4137 13.8927C26.6588 15.2545 27.1807 16.5275 27.8067 17.7954C28.0953 18.3801 28.403 18.9578 28.7146 19.5428C28.741 19.5924 28.7675 19.6421 28.794 19.6919C29.1291 20.3214 29.4666 20.9596 29.7779 21.6086C30.0277 22.0661 30.3454 22.4727 30.6921 22.9164C30.7644 23.009 30.8381 23.1032 30.9126 23.1999L31.2799 23.6761L30.7446 23.9503C30.7068 23.9696 30.6698 23.9884 30.6337 24.0068C30.137 24.26 29.799 24.4323 29.6208 24.7598L29.6146 24.7711L29.6078 24.7821C29.4225 25.0843 29.3504 25.4372 29.3187 25.8671C29.3064 26.034 29.3008 26.2003 29.2947 26.3775C29.2929 26.431 29.2911 26.4856 29.289 26.5415C29.2803 26.7733 29.2679 27.0212 29.2346 27.2689C29.2244 27.359 29.2142 27.4492 29.204 27.5394C28.9302 29.9562 28.6546 32.3892 28.2624 34.8054C28.0632 36.0482 27.5229 37.5205 26.1927 38.2286L26.1866 38.2318L26.1866 38.2318C24.9877 38.849 23.5485 39.2606 22.1212 39.0397L22.1099 39.038L22.1099 39.0378C20.6081 38.7703 19.7474 37.3876 19.3823 36.2021L19.3797 36.1937L19.3774 36.1851C19.1524 35.3509 19.095 34.4822 19.0418 33.6755C19.0312 33.515 19.0207 33.3569 19.0092 33.202L19.0082 33.189L19.0084 33.189C18.8946 30.8384 18.8725 28.4843 18.9423 26.1321L18.9427 26.1188L18.9429 26.1188C18.9849 25.3737 18.6003 24.6164 17.9826 24.2757L17.9779 24.2731L17.9779 24.2731C17.7016 24.1167 17.3652 24.0868 16.9005 24.0496L16.3403 24.0046L16.4501 23.4534C16.6332 22.5354 16.9993 21.6881 17.3417 20.896L17.3432 20.8925C17.6929 20.0833 18.018 19.3302 18.1832 18.531L18.1842 18.5262L18.1842 18.5262C18.6224 16.507 18.3853 14.3796 17.9202 12.3105L17.9196 12.3081C17.7241 11.4179 17.0581 10.6629 16.2242 10.461L16.2183 10.4595L16.2183 10.4595C14.7971 10.0969 13.321 10.652 11.8715 11.3355L11.094 11.7022L11.1597 10.8451C11.3454 8.4215 11.9902 5.89134 13.5028 3.86319L18.284 1.04841ZM18.284 1.04841L18.2808 1.04886M18.284 1.04841L18.2808 1.04886M18.2808 1.04886C17.3375 1.17647 16.4279 1.49109 15.6075 1.97443C14.7873 2.45765 14.0718 3.09973 13.503 3.86302L18.2808 1.04886Z" fill="#326690" stroke="white"/>
<path d="M14.6194 2.28552L14.0898 2.86782C13.0392 4.02296 12.2471 5.38888 11.7662 6.87444C11.1111 8.90047 10.8138 11.0507 10.9685 13.1668L10.9688 13.171L10.9687 13.171C11.0705 14.7443 11.0162 16.3239 10.8067 17.8865L14.6194 2.28552ZM14.6194 2.28552L13.8673 2.0536M14.6194 2.28552L13.8673 2.0536M13.8673 2.0536C11.378 1.28607 8.64673 0.726575 5.95438 1.25028C4.23588 1.57647 2.56634 2.57542 1.66184 4.18512C0.492726 6.24128 0.382415 8.68242 0.576978 10.8771L0.577994 10.8885L0.579536 10.9C0.968023 13.7721 1.64334 16.5912 2.43961 19.3539L2.43956 19.3539L2.44171 19.361C3.1487 21.6844 3.93778 24.0804 5.25565 26.2138L5.26072 26.222L5.2661 26.23L5.28166 26.2531C5.73285 26.9244 6.36546 27.8655 7.40733 28.1708L7.42664 28.1765L7.44635 28.1805C7.98486 28.2923 8.44833 28.1145 8.80741 27.8705C9.1577 27.6325 9.44621 27.3069 9.66226 27.0493L9.66235 27.0494L9.66932 27.0407C10.2475 26.3192 10.8447 25.6427 11.4507 24.9562C11.859 24.4937 12.2713 24.0266 12.6845 23.5381L12.9945 23.1717M13.8673 2.0536L12.9945 23.1717M12.9945 23.1717L12.641 22.847M12.9945 23.1717L12.641 22.847M12.641 22.847C11.2894 21.6053 10.5635 19.7124 10.8067 17.8866L12.641 22.847ZM28.4934 12.0296C28.4848 12.0257 28.4728 12.019 28.459 12.0098C28.6859 11.9024 28.9531 11.8648 29.2159 11.8986C29.1719 11.9474 29.1187 11.9911 29.0574 12.0273C28.8724 12.1363 28.6816 12.138 28.5405 12.0543L28.5176 12.0407L28.4934 12.0296ZM27.3493 10.9454L27.3399 10.9521L27.3309 10.9593C26.8279 11.3566 26.6086 11.9069 26.532 12.4384C26.4564 12.9634 26.5138 13.5047 26.5938 13.9513L26.5937 13.9513L26.5958 13.9618C26.8764 15.3563 27.4168 16.6388 28.0258 17.8595C28.3267 18.4629 28.6474 19.0566 28.9631 19.6412L28.9739 19.6613C29.2944 20.2549 29.6096 20.8391 29.9026 21.4286L30.3527 22.3342L30.799 21.4267C31.2953 20.4177 31.3807 19.3597 31.3363 18.3453C31.3141 17.8385 31.2588 17.3325 31.2022 16.8449C31.1949 16.7825 31.1877 16.7204 31.1805 16.6587C31.1307 16.2328 31.0827 15.8228 31.0537 15.4195L31.0539 15.4195L31.0526 15.4062C30.9826 14.6988 31.0537 13.9889 31.1563 13.2372C31.1751 13.099 31.1952 12.9586 31.2156 12.8164C31.3034 12.2024 31.3959 11.5555 31.4159 10.9074L31.4308 10.423L30.9471 10.393C30.862 10.3877 30.7741 10.3817 30.684 10.3756C30.2199 10.344 29.6964 10.3084 29.1889 10.3431C28.5719 10.3853 27.9244 10.5327 27.3493 10.9454Z" fill="#326690" stroke="white"/>
<path d="M17.2873 20.5874C18.6095 17.9456 18.3779 14.888 17.716 12.2219C17.4822 11.2558 16.5996 10.5818 15.6474 10.5382C14.0585 10.4472 12.5639 11.118 11.3418 11.917L11.1101 12.0685L11.1155 12.3453C11.1226 12.7055 11.1344 13.0596 11.1461 13.4096C11.1771 14.3382 11.2072 15.2381 11.145 16.1468L11.1445 16.1554L11.1442 16.164C11.1321 16.5214 11.0913 16.8626 11.0479 17.2265C11.0247 17.4203 11.0008 17.6205 10.98 17.8331C10.9233 18.4142 10.898 19.0406 11.0389 19.6805C11.445 21.864 13.3814 23.8572 15.7463 23.8323L16.1156 23.8284L16.2205 23.4742C16.5119 22.4894 16.8683 21.5251 17.2873 20.5874ZM16.1381 12.4804L16.1106 12.4959L16.0854 12.5148C15.9437 12.6205 15.7317 12.6424 15.5088 12.5452C15.3396 12.4715 15.2144 12.35 15.1491 12.217C15.5385 12.1301 15.9548 12.1894 16.2438 12.3828C16.2366 12.3925 16.2282 12.4028 16.2185 12.4133C16.1881 12.4465 16.1576 12.4693 16.1381 12.4804ZM16.2787 12.3208C16.2787 12.3208 16.2786 12.3211 16.2784 12.3217L16.2787 12.3208ZM30.0387 24.5485L30.0158 24.5655L29.9951 24.585C29.6933 24.8681 29.5705 25.2221 29.5177 25.5356C29.4738 25.7961 29.4728 26.0704 29.4721 26.2827C29.472 26.316 29.4719 26.3478 29.4716 26.3777L29.4684 26.737L29.8079 26.8546C30.7735 27.1893 31.7864 27.1458 32.6911 27.0376C34.0928 26.8836 35.5762 26.4039 36.6668 25.3327L37.7164 24.3018L36.256 24.4796C36.0281 24.5074 35.8038 24.538 35.5819 24.5682C34.9866 24.6493 34.4092 24.7279 33.8278 24.7434C33.0551 24.7641 32.3413 24.6679 31.6955 24.3309C31.3738 24.1193 31.0266 24.1176 30.743 24.1915C30.4628 24.2645 30.2171 24.4158 30.0387 24.5485ZM14.87 26.3838L14.8611 26.3886L14.8524 26.3938C14.4792 26.6163 14.0541 26.7282 13.553 26.8413C13.5058 26.852 13.4578 26.8627 13.4089 26.8736C12.963 26.9728 12.4548 27.0859 11.9808 27.3084L11.0612 27.7401L11.9642 28.2055C14.0118 29.2608 16.8871 28.9274 18.3724 26.935C18.8799 26.4242 18.8384 25.6983 18.5967 25.1924C18.3509 24.6781 17.7943 24.1766 17.0619 24.2819L16.9515 24.2978L16.8583 24.3591C16.4016 24.6594 16.0742 25.0884 15.8055 25.4404C15.7851 25.4671 15.7651 25.4933 15.7454 25.5191C15.4447 25.9111 15.1991 26.2051 14.87 26.3838Z" fill="#326690" stroke="white"/>
</svg>