<svg xmlns="http://www.w3.org/2000/svg" width="48" height="48" viewBox="0 0 48 48" fill="none">
<path d="M0.75 23.9663V47.4038H47.625V0.52875H0.75V23.9663ZM38.5238 22.0913C39.6465 22.3518 40.6669 22.939 41.4563 23.7788C41.8908 24.2312 42.2686 24.7349 42.5813 25.2788C42.5813 25.3388 40.5563 26.7075 39.3225 27.4725C39.2775 27.5025 39.0975 27.3075 38.8988 27.0112C38.6735 26.6226 38.3535 26.2974 37.9686 26.0659C37.5837 25.8344 37.1464 25.7042 36.6975 25.6875C35.2763 25.59 34.3613 26.3362 34.3688 27.5625C34.357 27.8678 34.4269 28.1707 34.5713 28.44C34.8825 29.0887 35.4638 29.475 37.2863 30.2625C40.6425 31.7062 42.0787 32.6587 42.9712 34.0125C43.9687 35.5125 44.19 37.935 43.515 39.7275C42.765 41.6775 40.9275 43.0012 38.3287 43.44C37.1418 43.5759 35.9426 43.5634 34.7588 43.4025C32.9521 43.1094 31.2854 42.2492 30 40.9462C29.5688 40.47 28.7287 39.2288 28.7812 39.1388C28.9181 39.0371 29.0623 38.9456 29.2125 38.865L30.9375 37.875L32.2837 37.095L32.565 37.5112C33.0397 38.1902 33.6437 38.7688 34.3425 39.2137C35.8425 40.0012 37.89 39.8925 38.9025 38.9812C39.2424 38.6473 39.4545 38.2048 39.5018 37.7306C39.5491 37.2564 39.4286 36.7807 39.1613 36.3862C38.7863 35.865 38.0362 35.4262 35.94 34.5112C33.5212 33.4687 32.4787 32.8237 31.5262 31.7962C30.9316 31.1182 30.4926 30.3182 30.24 29.4525C30.0516 28.4634 30.0237 27.4504 30.1575 26.4525C30.6562 24.1162 32.4075 22.485 34.965 22.0012C36.1494 21.8547 37.3491 21.8876 38.5238 22.0988V22.0913ZM27.5212 24.0563V25.9762H21.435V43.3125H17.1188V25.9725H11.0175V24.0975C11.0011 23.452 11.0186 22.8061 11.07 22.1625C11.0925 22.1325 14.82 22.1175 19.32 22.125H27.4988L27.5212 24.0563Z" fill="#007ACC"/>
</svg>